<svg xmlns="http://www.w3.org/2000/svg" fill-rule="evenodd" stroke-linejoin="round" stroke-miterlimit="1.414" clip-rule="evenodd" viewBox="0 0 32 32">
    <g fill="#fff" fill-rule="nonzero">
        <path d="M16 0C7.177 0 0 7.178 0 16s7.177 16 16 16 16-7.178 16-16S24.823 0 16 0zm0 30.897C7.786 30.897 1.103 24.214 1.103 16S7.786 1.103 16 1.103 30.897 7.786 30.897 16 24.214 30.897 16 30.897z"/>
        <path d="M4.966 14.897a.55.55 0 0 0 .39-.162l3.713-3.714a.44.44 0 0 1 .62 0l3.014 3.014a1.542 1.542 0 0 0 2.18 0l3.014-3.014a.44.44 0 0 1 .62 0l3.013 3.014a1.542 1.542 0 0 0 2.18 0l3.714-3.713a.551.551 0 1 0-.78-.78l-3.714 3.713a.439.439 0 0 1-.62 0l-3.013-3.014a1.542 1.542 0 0 0-2.18 0l-3.014 3.014a.439.439 0 0 1-.62 0l-3.014-3.014a1.542 1.542 0 0 0-2.18 0l-3.714 3.714a.551.551 0 0 0 .39.942zm21.678 1.265l-3.713 3.713a.438.438 0 0 1-.62 0l-3.014-3.014a1.542 1.542 0 0 0-2.18 0l-3.014 3.014a.438.438 0 0 1-.62 0l-3.013-3.014a1.542 1.542 0 0 0-2.18 0l-3.714 3.714a.551.551 0 1 0 .78.78l3.713-3.713a.44.44 0 0 1 .62 0l3.014 3.014a1.542 1.542 0 0 0 2.18 0l3.014-3.014a.44.44 0 0 1 .62 0l3.013 3.014a1.542 1.542 0 0 0 2.18 0l3.714-3.714a.551.551 0 1 0-.78-.78z"/>
    </g>
</svg>