
<svg xmlns="http://www.w3.org/2000/svg" id="Capa_1" viewBox="0 0 32 32">
	<style>
		.st0{fill:#fff}
	</style>
	<path d="M16 0C7.2 0 0 7.2 0 16s7.2 16 16 16 16-7.2 16-16S24.8 0 16 0zm0 30.9C7.8 30.9 1.1 24.2 1.1 16S7.8 1.1 16 1.1 30.9 7.8 30.9 16 24.2 30.9 16 30.9z" class="st0"/>
	<path d="M21.5 6.6c-2.4 0-4.6 1.5-5.5 3.6-1-2.1-3.1-3.6-5.5-3.6-3.3 0-6.1 2.7-6.1 6.1 0 .3.2.6.6.6.3 0 .6-.2.6-.6 0-2.7 2.2-5 5-5s5 2.2 5 5V27c0 .3.2.6.6.6s.6-.2.6-.6V12.7c0-2.7 2.2-5 5-5s5 2.2 5 5c0 .3.2.6.6.6s.6-.2.6-.6c-.4-3.4-3.1-6.1-6.5-6.1z" class="st0"/>
</svg>