<?xml version="1.0" encoding="UTF-8" standalone="no"?><!DOCTYPE svg PUBLIC "-//W3C//DTD SVG 1.1//EN" "http://www.w3.org/Graphics/SVG/1.1/DTD/svg11.dtd">
<svg viewBox="0 0 33 32" version="1.1" xmlns="http://www.w3.org/2000/svg" xmlns:xlink="http://www.w3.org/1999/xlink" xml:space="preserve" xmlns:serif="http://www.serif.com/" style="fill-rule:evenodd;clip-rule:evenodd;stroke-linejoin:round;stroke-miterlimit:1.41421;"><path id="path5126" d="M16.2,0c-5.511,0 -10,4.489 -10,10c0,5.167 3.966,9.424 9,9.938l0,8.187l-3.937,-4l-1.438,1.438l6.375,6.375l0.688,-0.688l5.687,-5.687l-1.437,-1.438l-3.938,4l0,-8.187c5.034,-0.514 9,-4.771 9,-9.938c0,-5.511 -4.489,-10 -10,-10Zm0,2c4.43,0 8,3.57 8,8c0,4.239 -3.275,7.647 -7.437,7.938l-1.125,0c-4.163,-0.291 -7.438,-3.699 -7.438,-7.938c0,-4.43 3.57,-8 8,-8Z" style="fill:#cd0000;fill-rule:nonzero;"/></svg>