<?xml version="1.0" encoding="UTF-8" standalone="no"?>
<!DOCTYPE svg PUBLIC "-//W3C//DTD SVG 1.1//EN" "http://www.w3.org/Graphics/SVG/1.1/DTD/svg11.dtd">
<svg width="100%" height="100%" viewBox="0 0 24 24" version="1.1" xmlns="http://www.w3.org/2000/svg" xmlns:xlink="http://www.w3.org/1999/xlink" xml:space="preserve" xmlns:serif="http://www.serif.com/" style="fill-rule:evenodd;clip-rule:evenodd;stroke-linejoin:round;stroke-miterlimit:1.41421;">
    <rect id="moon" x="0" y="0" width="24" height="24" style="fill:none;"/>
    <clipPath id="_clip1">
        <rect x="0" y="0" width="24" height="24"/>
    </clipPath>
    <g clip-path="url(#_clip1)">
        <path d="M10.81,-0.19c2.992,0.014 5.94,1.179 8.121,3.197c1.819,1.683 3.103,3.937 3.608,6.366c0.955,4.587 -1.018,9.664 -4.99,12.383c-3.927,2.689 -9.444,2.77 -13.479,0.053c-1.148,-0.772 -2.158,-1.745 -2.979,-2.854c2.843,1.463 6.46,1.034 8.876,-1.034c2.684,-2.298 3.603,-6.423 1.952,-9.694c-1.063,-2.106 -3.097,-3.699 -5.398,-4.216c-1.809,-0.406 -3.754,-0.159 -5.404,0.681l-0.026,0.014c2.228,-3.009 5.891,-4.875 9.633,-4.896c0.029,0 0.057,0 0.086,0Zm-0.082,1.002c-2.236,0.012 -4.465,0.721 -6.295,2.006c0,0 0.404,-0.009 0.733,0.006c3.208,0.142 6.277,2.151 7.696,5.049c1.311,2.677 1.174,6.02 -0.365,8.585c-1.646,2.746 -4.806,4.487 -8.049,4.383l-0.019,-0.001c3.216,2.276 7.687,2.642 11.266,0.849c2.897,-1.451 5.096,-4.226 5.82,-7.404c0.966,-4.24 -0.817,-8.978 -4.477,-11.516c-1.816,-1.26 -4.007,-1.947 -6.232,-1.957c-0.026,0 -0.052,0 -0.078,0Z" style="fill:#fff;fill-rule:nonzero;"/>
    </g>
</svg>
