<?xml version="1.0" encoding="UTF-8" standalone="no"?>
<!DOCTYPE svg PUBLIC "-//W3C//DTD SVG 1.1//EN" "http://www.w3.org/Graphics/SVG/1.1/DTD/svg11.dtd">
<svg width="100%" height="100%" viewBox="0 0 24 24" version="1.1" xmlns="http://www.w3.org/2000/svg" xmlns:xlink="http://www.w3.org/1999/xlink" xml:space="preserve" xmlns:serif="http://www.serif.com/" style="fill-rule:evenodd;clip-rule:evenodd;stroke-linejoin:round;stroke-miterlimit:1.41421;">
    <rect id="earth" x="0" y="0" width="24" height="24" style="fill:none;"/>
    <clipPath id="_clip1">
        <rect x="0" y="0" width="24" height="24"/>
    </clipPath>
    <g clip-path="url(#_clip1)">
        <path d="M12.5,0.012c4.187,0.19 8.188,2.686 10.153,6.462c0.807,1.551 1.242,3.279 1.307,5.026l0.04,0l0,1l-0.042,0c-0.099,2.306 -0.839,4.593 -2.215,6.503c-2.109,2.928 -5.606,4.784 -9.243,4.971l0,0.026l-1,0l0,-0.017c-0.579,-0.02 -1.158,-0.082 -1.734,-0.191c-4.829,-0.911 -8.918,-5.011 -9.644,-10.077c-0.058,-0.404 -0.094,-0.809 -0.108,-1.215l-0.014,0l0,-1l0.022,0c0.186,-3.699 2.11,-7.313 5.271,-9.449c1.829,-1.236 3.994,-1.944 6.207,-2.04l0,-0.011l1,0l0,0.012Zm10.488,12.488l-10.488,0l0,10.454c1.915,-0.083 3.815,-0.647 5.454,-1.705c2.633,-1.7 4.487,-4.556 4.934,-7.676c0.051,-0.356 0.084,-0.714 0.1,-1.073Zm-11.488,10.453l0,-10.453l-10.469,0c0.198,3.439 2.022,6.803 4.987,8.731c1.629,1.058 3.541,1.637 5.482,1.722Zm0,-21.941c-2.593,0.125 -5.125,1.188 -7.016,2.959c-1.673,1.567 -2.842,3.664 -3.281,5.913c-0.104,0.534 -0.164,1.074 -0.183,1.616l10.48,0l0,-10.488Zm1,0.001l0,10.487l10.486,0c-0.072,-1.542 -0.464,-3.069 -1.159,-4.446c-1.752,-3.469 -5.463,-5.849 -9.327,-6.041Z" style="fill:#fff;fill-rule:nonzero;"/>
    </g>
</svg>
