<?xml version="1.0" encoding="UTF-8" standalone="no"?>
<!DOCTYPE svg PUBLIC "-//W3C//DTD SVG 1.1//EN" "http://www.w3.org/Graphics/SVG/1.1/DTD/svg11.dtd">
<svg width="100%" height="100%" viewBox="0 0 24 24" version="1.1" xmlns="http://www.w3.org/2000/svg" xmlns:xlink="http://www.w3.org/1999/xlink" xml:space="preserve" xmlns:serif="http://www.serif.com/" style="fill-rule:evenodd;clip-rule:evenodd;stroke-linejoin:round;stroke-miterlimit:1.41421;">
    <rect id="mars" x="0" y="0" width="24" height="24" style="fill:none;"/>
    <clipPath id="_clip1">
        <rect x="0" y="0" width="24" height="24"/>
    </clipPath>
    <g clip-path="url(#_clip1)">
        <path d="M1.717,22.986l8.267,-0.097l0.011,0.994l-9.995,0.117l0.117,-9.995c0.331,0.003 0.663,0.007 0.994,0.011l-0.097,8.267l4.718,-4.718c0.234,0.235 0.468,0.469 0.703,0.703l-4.718,4.718Zm11.804,-22.986c2.158,0.005 4.302,0.684 6.058,1.932c1.449,1.029 2.628,2.426 3.394,4.026c0.756,1.578 1.104,3.345 1.013,5.087c-0.083,1.591 -0.531,3.164 -1.309,4.559c-1.015,1.822 -2.591,3.331 -4.447,4.266c-1.461,0.736 -3.093,1.119 -4.724,1.119c-2.235,0 -4.455,-0.724 -6.261,-2.067c-1.576,-1.174 -2.821,-2.8 -3.531,-4.64c-0.618,-1.603 -0.833,-3.357 -0.626,-5.06c0.236,-1.947 1.032,-3.828 2.275,-5.353c1.037,-1.272 2.371,-2.297 3.868,-2.963c1.272,-0.567 2.658,-0.875 4.054,-0.904c0.079,-0.002 0.157,-0.002 0.236,-0.002Zm-0.03,0.994c-1.651,0.004 -3.293,0.438 -4.726,1.262c-1.666,0.96 -3.027,2.431 -3.849,4.17c-0.667,1.409 -0.976,2.983 -0.899,4.539c0.071,1.443 0.473,2.867 1.171,4.129c0.914,1.652 2.326,3.018 4.014,3.875c1.329,0.674 2.817,1.026 4.304,1.026c1.757,0 3.51,-0.491 5.017,-1.429c1.367,-0.851 2.518,-2.058 3.3,-3.472c0.956,-1.728 1.349,-3.762 1.117,-5.724c-0.21,-1.776 -0.929,-3.482 -2.063,-4.873c-1.182,-1.449 -2.799,-2.545 -4.595,-3.091c-0.894,-0.272 -1.826,-0.41 -2.762,-0.412c-0.01,0 -0.019,0 -0.029,0Z" style="fill:#fff;fill-rule:nonzero;"/>
    </g>
</svg>
