<?xml version="1.0" encoding="UTF-8" standalone="no"?>
<!DOCTYPE svg PUBLIC "-//W3C//DTD SVG 1.1//EN" "http://www.w3.org/Graphics/SVG/1.1/DTD/svg11.dtd">
<svg width="100%" height="100%" viewBox="0 0 24 24" version="1.1" xmlns="http://www.w3.org/2000/svg" xmlns:xlink="http://www.w3.org/1999/xlink" xml:space="preserve" xmlns:serif="http://www.serif.com/" style="fill-rule:evenodd;clip-rule:evenodd;stroke-linejoin:round;stroke-miterlimit:1.41421;">
    <rect id="venus" x="0" y="0" width="24" height="24" style="fill:none;"/>
    <clipPath id="_clip1">
        <rect x="0" y="0" width="24" height="24"/>
    </clipPath>
    <g clip-path="url(#_clip1)">
        <path d="M12.448,20.5l4.484,0l0,1l-4.484,0l0,2.5l-1,0l0,-2.5l-4.516,0l0,-1l4.516,0l0,-1.5l1,0l0,1.5Zm-0.469,-20.5c2.943,0.014 5.817,1.46 7.581,3.818c1.762,2.356 2.35,5.554 1.486,8.422c-0.805,2.676 -2.86,4.956 -5.455,6.036c-2.302,0.958 -4.983,0.958 -7.286,0c-3.02,-1.257 -5.303,-4.153 -5.765,-7.448c-0.343,-2.45 0.308,-5.02 1.797,-7.01c1.712,-2.289 4.459,-3.75 7.397,-3.815c0.081,-0.002 0.163,-0.003 0.245,-0.003Zm-0.058,1c-2.62,0.013 -5.17,1.286 -6.753,3.376c-1.602,2.115 -2.138,4.995 -1.361,7.576c0.723,2.399 2.561,4.435 4.882,5.4c2.538,1.056 5.587,0.782 7.903,-0.733c2.349,-1.536 3.856,-4.276 3.856,-7.119c0,-2.779 -1.444,-5.51 -3.792,-7.076c-1.369,-0.913 -2.99,-1.41 -4.653,-1.423c-0.027,-0.001 -0.055,-0.001 -0.082,-0.001Z" style="fill:#fff;fill-rule:nonzero;"/>
    </g>
</svg>
