<?xml version="1.0" encoding="UTF-8" standalone="no"?>
<!DOCTYPE svg PUBLIC "-//W3C//DTD SVG 1.1//EN" "http://www.w3.org/Graphics/SVG/1.1/DTD/svg11.dtd">
<svg width="100%" height="100%" viewBox="0 0 24 24" version="1.1" xmlns="http://www.w3.org/2000/svg" xmlns:xlink="http://www.w3.org/1999/xlink" xml:space="preserve" xmlns:serif="http://www.serif.com/" style="fill-rule:evenodd;clip-rule:evenodd;stroke-linejoin:round;stroke-miterlimit:1.41421;">
    <rect id="pallas" x="0" y="0" width="24" height="24" style="fill:none;"/>
    <clipPath id="_clip1">
        <rect x="0" y="0" width="24" height="24"/>
    </clipPath>
    <g clip-path="url(#_clip1)">
        <path d="M12.5,20.5l4.5,0l0,1l-4.5,0l0,2.5l-1,0l0,-2.5l-4.5,0l0,-1l4.5,0l0,-1.078l1,0l0,1.078Zm-0.481,-20.5c0.802,0.008 1.589,0.33 2.167,0.897c2.509,2.493 5.01,4.994 7.503,7.503c0.67,0.683 0.715,1.893 0,2.622c-2.489,2.505 -4.993,4.993 -7.489,7.489c-0.904,0.899 -2.378,1.165 -3.545,0.606c-0.31,-0.148 -0.594,-0.35 -0.841,-0.592c-2.509,-2.493 -5.01,-4.994 -7.503,-7.503c-0.67,-0.683 -0.715,-1.893 0,-2.622c2.489,-2.504 4.993,-4.993 7.489,-7.489c0.572,-0.568 1.354,-0.898 2.163,-0.91c0.018,-0.001 0.037,-0.001 0.056,-0.001Zm-0.032,1c-0.546,0.005 -1.081,0.227 -1.47,0.608c-2.507,2.492 -5.022,4.975 -7.498,7.498c-0.311,0.322 -0.322,0.882 0.004,1.214c2.49,2.506 4.988,5.004 7.494,7.494c0.756,0.742 2.08,0.813 2.907,0.056c0.02,-0.018 0.04,-0.037 0.059,-0.056c2.507,-2.492 5.023,-4.975 7.498,-7.498c0.31,-0.321 0.326,-0.878 -0.004,-1.214c-2.49,-2.506 -4.988,-5.004 -7.494,-7.494c-0.386,-0.378 -0.914,-0.599 -1.458,-0.607c-0.012,-0.001 -0.025,-0.001 -0.038,-0.001Z" style="fill:#fff;fill-rule:nonzero;"/>
    </g>
</svg>
