<?xml version="1.0" encoding="UTF-8" standalone="no"?>
<!DOCTYPE svg PUBLIC "-//W3C//DTD SVG 1.1//EN" "http://www.w3.org/Graphics/SVG/1.1/DTD/svg11.dtd">
<svg width="100%" height="100%" viewBox="0 0 24 24" version="1.1" xmlns="http://www.w3.org/2000/svg" xmlns:xlink="http://www.w3.org/1999/xlink" xml:space="preserve" xmlns:serif="http://www.serif.com/" style="fill-rule:evenodd;clip-rule:evenodd;stroke-linejoin:round;stroke-miterlimit:1.41421;">
    <rect id="chiron" x="0" y="0" width="24" height="24" style="fill:none;"/>
    <clipPath id="_clip1">
        <rect x="0" y="0" width="24" height="24"/>
    </clipPath>
    <g clip-path="url(#_clip1)">
        <path d="M12.009,7.966c2.926,0.014 5.77,1.763 7.101,4.361c1.157,2.257 1.148,5.078 -0.022,7.326c-1.562,3.002 -5.146,4.819 -8.57,4.184c-2.989,-0.554 -5.553,-2.952 -6.297,-5.918c-0.67,-2.67 0.156,-5.66 2.105,-7.608c1.448,-1.448 3.453,-2.308 5.528,-2.344c0.052,-0.001 0.104,-0.001 0.155,-0.001Zm-0.048,1c-3.094,0.015 -6.059,2.303 -6.791,5.379c-0.556,2.342 0.199,4.95 1.923,6.633c1.933,1.888 4.999,2.513 7.536,1.475c2.039,-0.834 3.635,-2.68 4.157,-4.819c0.568,-2.323 -0.159,-4.922 -1.852,-6.616c-1.268,-1.268 -3.019,-2.019 -4.837,-2.051c-0.046,-0.001 -0.091,-0.001 -0.136,-0.001Zm-0.478,-5.751l4.235,-2.674c0.178,0.282 0.356,0.563 0.534,0.845l-3.941,2.49l3.868,1.628l-0.388,0.922l-4.308,-1.814l0,3.354l-1,0l0,-8.003l1,0l0,3.252Z" style="fill:#fff;fill-rule:nonzero;"/>
    </g>
</svg>
