<?xml version="1.0" encoding="UTF-8" standalone="no"?>
<!DOCTYPE svg PUBLIC "-//W3C//DTD SVG 1.1//EN" "http://www.w3.org/Graphics/SVG/1.1/DTD/svg11.dtd">
<svg width="100%" height="100%" viewBox="0 0 24 24" version="1.1" xmlns="http://www.w3.org/2000/svg" xmlns:xlink="http://www.w3.org/1999/xlink" xml:space="preserve" xmlns:serif="http://www.serif.com/" style="fill-rule:evenodd;clip-rule:evenodd;stroke-linejoin:round;stroke-miterlimit:1.41421;">
    <rect id="uranus" x="0" y="0" width="24" height="24" style="fill:none;"/>
    <clipPath id="_clip1">
        <rect x="0" y="0" width="24" height="24"/>
    </clipPath>
    <g clip-path="url(#_clip1)">
        <path d="M6,13.5l-4,0l0,-1l3.5,0l0,-11.5l-3.5,0l0,-1l4,0c0.219,0.029 0.425,0.155 0.483,0.371c0.011,0.042 0.011,0.086 0.017,0.129l0,5.421l5,0l0,-5.921l1,0l0,5.921l5,0l0,-5.421l0.017,-0.129c0.033,-0.081 0.068,-0.163 0.129,-0.225c0.093,-0.092 0.222,-0.129 0.354,-0.146l4,0l0,1l-3.5,0l0,11.5l3.5,0l0,1l-4,0c-0.087,-0.011 -0.175,-0.024 -0.25,-0.067c-0.114,-0.066 -0.199,-0.179 -0.233,-0.304c-0.011,-0.042 -0.011,-0.086 -0.017,-0.129l0,-6.079l-5,0l0,6.104c2.07,0.203 3.984,1.63 4.694,3.664c0.577,1.653 0.309,3.581 -0.729,5.021c-1.008,1.4 -2.703,2.284 -4.447,2.29c-2.045,0.006 -4.054,-1.219 -4.968,-3.101c-0.866,-1.783 -0.682,-4.041 0.533,-5.676c0.922,-1.24 2.382,-2.051 3.917,-2.199l0,-6.103l-5,0l0,6.079l-0.017,0.129c-0.033,0.081 -0.068,0.163 -0.129,0.225c-0.093,0.092 -0.222,0.129 -0.354,0.146Zm5.985,0.5c-1.124,0.005 -2.231,0.444 -3.049,1.206c-1.375,1.28 -1.852,3.448 -0.998,5.231c0.725,1.516 2.337,2.558 4.047,2.563c1.911,0.006 3.755,-1.31 4.325,-3.202c0.334,-1.109 0.219,-2.351 -0.321,-3.381c-0.751,-1.434 -2.305,-2.399 -3.945,-2.417c-0.02,0 -0.039,0 -0.059,0Z" style="fill:#fff;fill-rule:nonzero;"/>
    </g>
</svg>
