<?xml version="1.0" encoding="UTF-8" standalone="no"?>
<!DOCTYPE svg PUBLIC "-//W3C//DTD SVG 1.1//EN" "http://www.w3.org/Graphics/SVG/1.1/DTD/svg11.dtd">
<svg width="100%" height="100%" viewBox="0 0 24 24" version="1.1" xmlns="http://www.w3.org/2000/svg" xmlns:xlink="http://www.w3.org/1999/xlink" xml:space="preserve" xmlns:serif="http://www.serif.com/" style="fill-rule:evenodd;clip-rule:evenodd;stroke-linejoin:round;stroke-miterlimit:1.41421;">
    <rect id="asc" x="0" y="0" width="24" height="24" style="fill:none;"/>
    <path d="M7.744,15.483c0.753,0.003 1.53,0.142 2.124,0.621c0.46,0.373 0.773,0.945 0.768,1.535l-0.958,-0.014c-0.001,0.02 -0.006,-0.079 -0.021,-0.149c-0.053,-0.239 -0.188,-0.457 -0.38,-0.616c-0.325,-0.27 -0.759,-0.367 -1.169,-0.403c-0.435,-0.038 -0.877,-0.022 -1.305,0.025c-0.239,0.025 -0.495,0.043 -0.687,0.178c-0.098,0.069 -0.087,0.222 -0.085,0.365c0.005,0.357 -0.027,0.719 0.157,1.011c0.208,0.33 0.569,0.525 0.914,0.682c0.85,0.387 1.798,0.545 2.64,0.951c0.386,0.186 0.757,0.441 0.928,0.85c0.137,0.326 0.1,0.71 0.053,1.058c-0.092,0.664 -0.421,1.311 -1.083,1.63c-0.543,0.263 -1.168,0.312 -1.762,0.287c-0.427,-0.018 -0.849,-0.129 -1.233,-0.32c-0.647,-0.322 -1.193,-0.851 -1.539,-1.472c-0.073,-0.13 -0.138,-0.266 -0.175,-0.41l0.929,-0.237c0.023,0.09 0.076,0.172 0.127,0.255c0.414,0.674 1.129,1.192 1.932,1.226c0.385,0.017 0.778,-0.004 1.144,-0.127c0.193,-0.065 0.377,-0.172 0.497,-0.342c0.216,-0.306 0.248,-0.719 0.242,-1.1c-0.003,-0.153 -0.164,-0.258 -0.292,-0.336c-0.488,-0.295 -1.068,-0.429 -1.622,-0.605c-0.591,-0.188 -1.176,-0.38 -1.714,-0.718c-0.463,-0.291 -0.866,-0.718 -1.017,-1.253c-0.094,-0.335 -0.081,-0.693 -0.084,-1.038c-0.004,-0.42 0.1,-0.848 0.46,-1.119c0.371,-0.278 0.853,-0.344 1.298,-0.382c0.303,-0.027 0.61,-0.034 0.913,-0.033Zm7.849,0c0.723,0.004 1.441,0.257 2.008,0.715c0.444,0.358 0.814,0.816 1.045,1.335l0.004,0.009l-0.88,0.38c-0.096,-0.219 -0.238,-0.42 -0.391,-0.602c-0.361,-0.432 -0.866,-0.759 -1.426,-0.85c-0.46,-0.074 -0.956,-0.039 -1.336,0.245c-0.382,0.285 -0.563,0.779 -0.651,1.282c-0.096,0.548 -0.074,1.109 -0.069,1.667c0.006,0.498 0.148,0.999 0.342,1.453c0.259,0.605 0.671,1.184 1.326,1.364c0.312,0.086 0.645,0.071 0.962,0.002c0.347,-0.076 0.674,-0.258 0.869,-0.568c0.236,-0.375 0.278,-0.837 0.251,-1.267l-0.001,-0.009l0.957,-0.063c0.044,0.667 -0.057,1.352 -0.437,1.913c-0.236,0.349 -0.579,0.621 -0.97,0.785c-0.992,0.415 -2.173,0.247 -2.948,-0.468c-0.51,-0.469 -0.843,-1.104 -1.054,-1.747c-0.153,-0.468 -0.253,-0.956 -0.256,-1.447c-0.007,-0.714 -0.024,-1.415 0.158,-2.128c0.188,-0.734 0.623,-1.437 1.333,-1.767c0.361,-0.168 0.765,-0.235 1.164,-0.234Zm-6.844,-5.879l-1.591,4.454c-0.301,-0.107 -0.602,-0.214 -0.903,-0.322l4.793,-13.421l0.046,-0.094c0.057,-0.072 0.067,-0.096 0.145,-0.147c0.173,-0.112 0.422,-0.097 0.581,0.045c0.069,0.063 0.075,0.089 0.12,0.169c1.236,2.882 2.197,5.898 3.707,8.648l2.045,4.772c0.01,0.032 0.023,0.063 0.03,0.096c0.039,0.198 -0.06,0.413 -0.236,0.512c-0.205,0.114 -0.487,0.054 -0.626,-0.142c-0.019,-0.028 -0.033,-0.059 -0.049,-0.088l-1.921,-4.482l-6.141,0Zm0.342,-0.959l5.388,0l-2.939,-6.857c-0.816,2.286 -1.632,4.571 -2.449,6.857Z" style="fill:#fff;fill-rule:nonzero;"/>
</svg>
