<?xml version="1.0" encoding="UTF-8" standalone="no"?>
<!DOCTYPE svg PUBLIC "-//W3C//DTD SVG 1.1//EN" "http://www.w3.org/Graphics/SVG/1.1/DTD/svg11.dtd">
<svg width="100%" height="100%" viewBox="0 0 24 24" version="1.1" xmlns="http://www.w3.org/2000/svg" xmlns:xlink="http://www.w3.org/1999/xlink" xml:space="preserve" xmlns:serif="http://www.serif.com/" style="fill-rule:evenodd;clip-rule:evenodd;stroke-linejoin:round;stroke-miterlimit:1.41421;">
    <rect id="ceres" x="0" y="0" width="24" height="24" style="fill:none;"/>
    <clipPath id="_clip1">
        <rect x="0" y="0" width="24" height="24"/>
    </clipPath>
    <g clip-path="url(#_clip1)">
        <path d="M3.901,9l-0.995,0c0.143,-2.933 1.668,-5.799 4.174,-7.492c1.534,-1.037 3.367,-1.605 5.226,-1.626c0.041,0 0.082,0 0.123,0c3.451,0.016 6.802,2.029 8.417,5.133c1.604,3.085 1.354,7.052 -0.722,9.935c-1.633,2.267 -4.315,3.723 -7.124,3.928l0,1.622l4.5,0l0,1l-4.5,0l0,2.5l-1,0l0,-2.5l-4.5,0l0,-1l4.5,0l0,-2.5c0,0 0,-0.131 0,-0.131c1.743,0.084 3.514,-0.351 5.006,-1.314c2.031,-1.311 3.463,-3.51 3.816,-5.914c0.254,-1.736 -0.039,-3.552 -0.841,-5.118c-1.409,-2.748 -4.4,-4.605 -7.5,-4.639c-0.036,-0.001 -0.073,-0.001 -0.11,-0.001c-2.131,0.011 -4.238,0.847 -5.789,2.3c-1.295,1.213 -2.2,2.836 -2.539,4.576c-0.08,0.41 -0.127,0.825 -0.142,1.241Zm-0.995,0l0,0.961l-0.017,-0.523l0.017,-0.438Z" style="fill:#fff;"/>
    </g>
</svg>
