<?xml version="1.0" encoding="UTF-8" standalone="no"?>
<!DOCTYPE svg PUBLIC "-//W3C//DTD SVG 1.1//EN" "http://www.w3.org/Graphics/SVG/1.1/DTD/svg11.dtd">
<svg width="100%" height="100%" viewBox="0 0 24 24" version="1.1" xmlns="http://www.w3.org/2000/svg" xmlns:xlink="http://www.w3.org/1999/xlink" xml:space="preserve" xmlns:serif="http://www.serif.com/" style="fill-rule:evenodd;clip-rule:evenodd;stroke-linejoin:round;stroke-miterlimit:1.41421;">
    <rect id="neptune" x="0" y="0" width="24" height="24" style="fill:none;"/>
    <path d="M20.21,0.38l0.254,-0.38c0.182,0.055 0.364,0.11 0.547,0.166c0,0.176 0,0.353 0,0.53l1.811,2.716l-0.806,0.537l-1.005,-1.508c0.002,2.519 0.004,5.038 0,7.557c-0.011,2.223 -1.223,4.477 -2.817,6.091c-1.502,1.519 -3.571,2.453 -5.71,2.575l0,1.852l4.338,0l0,0.968l-4.338,0l0,2.516l-0.968,0l0,-2.516l-4.37,0l0,-0.968l4.37,0l0,-1.852c-2.217,-0.128 -4.37,-1.13 -5.89,-2.763c-1.444,-1.551 -2.041,-3.631 -2.081,-5.763c-0.001,-0.056 -0.002,-0.112 -0.002,-0.168l0,-0.95l-0.054,0l0,-6.564l-0.995,1.493l-0.805,-0.537l1.8,-2.7l0,-0.229c0,0 0.005,-0.112 0.041,-0.194c0.073,-0.168 0.244,-0.278 0.433,-0.288l0.001,-0.001l0.002,0.001c0.014,-0.001 0.029,-0.001 0.044,-0.001c0.035,0.004 0.044,0.004 0.079,0.013c0.056,0.014 0.109,0.039 0.157,0.072l0.265,0.081l0,0.251l1.8,2.7l-0.805,0.537l-0.996,-1.493c-0.001,2.611 -0.003,5.222 0.001,7.834c0.011,2.438 0.998,4.865 3.029,6.3c1.163,0.823 2.555,1.29 3.976,1.38l0,-15.595l-1.049,1.574l-0.805,-0.537l1.935,-2.903l0.001,0c0.097,-0.142 0.27,-0.226 0.454,-0.213c0.118,0.017 0.229,0.07 0.307,0.157c0.021,0.024 0.025,0.031 0.044,0.056l1.935,2.903l-0.805,0.537l-1.049,-1.574l0,15.598c1.094,-0.063 2.179,-0.353 3.163,-0.88c2.322,-1.244 4.24,-3.715 4.385,-6.405c0.007,-0.141 0.011,-0.282 0.011,-0.424l0,-2.418l-0.043,0l0,-5.111l-1.006,1.509l-0.805,-0.537l1.823,-2.734c0.004,-0.024 0.011,-0.05 0.02,-0.073c0.035,-0.091 0.098,-0.17 0.178,-0.225Z" style="fill:#fff;fill-rule:nonzero;"/>
</svg>
