<?xml version="1.0" encoding="UTF-8" standalone="no"?>
<!DOCTYPE svg PUBLIC "-//W3C//DTD SVG 1.1//EN" "http://www.w3.org/Graphics/SVG/1.1/DTD/svg11.dtd">
<svg width="100%" height="100%" viewBox="0 0 24 24" version="1.1" xmlns="http://www.w3.org/2000/svg" xmlns:xlink="http://www.w3.org/1999/xlink" xml:space="preserve" xmlns:serif="http://www.serif.com/" style="fill-rule:evenodd;clip-rule:evenodd;stroke-linejoin:round;stroke-miterlimit:1.41421;">
    <rect id="mercury" x="0" y="0" width="24" height="24" style="fill:none;"/>
    <path d="M12.518,20.486l4.612,0l0,1.028l-4.612,0l0,2.486l-1.028,0l0,-2.486l-4.645,0l0,-1.028l4.645,0l0,-1.629l1.028,0l0,1.629Zm3.567,-18.084c0.666,-0.661 1.33,-1.319 1.995,-1.978l0.428,-0.424c0.29,0.229 0.579,0.459 0.868,0.688c-0.568,0.927 -1.136,1.851 -1.705,2.782c0.496,0.419 0.947,0.893 1.338,1.416c1.621,2.167 2.163,5.11 1.368,7.75c-0.742,2.463 -2.632,4.561 -5.021,5.554c-2.612,1.088 -5.747,0.805 -8.129,-0.754c-2.413,-1.578 -3.965,-4.381 -3.965,-7.321c0,-2.365 1.007,-4.712 2.73,-6.345c0.204,-0.193 0.417,-0.375 0.638,-0.547c-0.536,-0.801 -1.073,-1.6 -1.61,-2.399l-0.096,-0.143l0.773,-0.674c0.043,0.038 0.086,0.076 0.128,0.115c0.794,0.707 1.609,1.415 2.388,2.123c1.121,-0.538 2.354,-0.843 3.594,-0.87c0.075,-0.002 0.15,-0.003 0.225,-0.003c1.414,0.007 2.81,0.373 4.053,1.03Zm-4.106,-0.001c-2.376,0.011 -4.701,1.168 -6.142,3.082c-1.441,1.914 -1.925,4.519 -1.221,6.857c0.656,2.176 2.318,4.022 4.431,4.901c2.294,0.954 5.047,0.715 7.151,-0.653c2.141,-1.391 3.52,-3.875 3.52,-6.473c0,-2.532 -1.326,-5.02 -3.461,-6.435c-1.245,-0.825 -2.731,-1.272 -4.228,-1.279c-0.017,0 -0.033,0 -0.05,0Z" style="fill:#fff;fill-rule:nonzero;"/>
</svg>
