<?xml version="1.0" encoding="UTF-8" standalone="no"?>
<!DOCTYPE svg PUBLIC "-//W3C//DTD SVG 1.1//EN" "http://www.w3.org/Graphics/SVG/1.1/DTD/svg11.dtd">
<svg width="100%" height="100%" viewBox="0 0 24 24" version="1.1" xmlns="http://www.w3.org/2000/svg" xmlns:xlink="http://www.w3.org/1999/xlink" xml:space="preserve" xmlns:serif="http://www.serif.com/" style="fill-rule:evenodd;clip-rule:evenodd;stroke-linejoin:round;stroke-miterlimit:1.41421;">
    <rect id="saturn" x="0" y="0" width="24" height="24" style="fill:none;"/>
    <clipPath id="_clip1">
        <rect x="0" y="0" width="24" height="24"/>
    </clipPath>
    <g clip-path="url(#_clip1)">
        <path d="M14.018,0.794l-5.95,0c0.074,3.91 0.144,7.819 0.193,11.728c0,0 0.174,-0.416 0.336,-0.74c1.377,-2.75 3.934,-5.121 6.963,-5.244c1.404,-0.056 2.865,0.421 3.877,1.403c1.06,1.031 1.123,2.847 0.778,4.398c-0.385,1.731 -1.419,3.249 -2.264,4.794c-0.742,1.367 -1.405,2.849 -1.513,4.56c-0.058,0.917 0.157,1.916 1.047,2.39c0.069,0.037 0.14,0.069 0.212,0.1l-0.04,0.116c-0.513,-0.129 -0.981,-0.437 -1.282,-0.882c-0.871,-1.289 -0.533,-3.117 -0.258,-4.303c0.101,-0.432 0.239,-0.855 0.401,-1.268c0.152,-0.386 0.339,-0.758 0.529,-1.129c0,0 0.203,-0.373 0.355,-0.638c0.89,-1.557 1.851,-3.088 1.988,-4.949c0.078,-1.06 -0.123,-2.152 -1.023,-2.768c-0.949,-0.649 -2.12,-0.955 -3.274,-0.781c-1.748,0.264 -3.252,1.407 -4.364,2.748c-0.921,1.112 -1.713,2.414 -1.854,3.84c-0.192,1.94 0.078,3.912 -0.099,5.839c-0.031,0.391 0.003,0.879 -0.437,1.023c-0.386,0.126 -0.773,-0.28 -0.854,-0.765c-0.056,-0.332 -0.044,-0.669 -0.073,-1.008c-0.163,-1.936 -0.114,-3.881 -0.135,-5.804c-0.047,-4.222 -0.123,-8.439 -0.204,-12.66l-2.005,0l0,-0.995l8.95,0l0,0.995Z" style="fill:#fff;fill-rule:nonzero;"/>
    </g>
</svg>
