<?xml version="1.0" encoding="UTF-8" standalone="no"?>
<!DOCTYPE svg PUBLIC "-//W3C//DTD SVG 1.1//EN" "http://www.w3.org/Graphics/SVG/1.1/DTD/svg11.dtd">
<svg width="100%" height="100%" viewBox="0 0 24 24" version="1.1" xmlns="http://www.w3.org/2000/svg" xmlns:xlink="http://www.w3.org/1999/xlink" xml:space="preserve" xmlns:serif="http://www.serif.com/" style="fill-rule:evenodd;clip-rule:evenodd;stroke-linejoin:round;stroke-miterlimit:1.41421;">
    <rect id="pluto" x="0" y="0" width="24" height="24" style="fill:none;"/>
    <clipPath id="_clip1">
        <rect x="0" y="0" width="24" height="24"/>
    </clipPath>
    <g clip-path="url(#_clip1)">
        <path d="M11.575,19.385c-0.571,-0.013 -1.142,-0.072 -1.709,-0.179c-4.42,-0.833 -8.164,-4.576 -8.848,-9.206l1.044,0c0.468,2.685 2.01,5.204 4.358,6.75c3.231,2.128 7.711,2.16 10.992,0c2.303,-1.516 3.94,-4.015 4.388,-6.75l0.985,0c-0.25,1.714 -0.892,3.378 -1.924,4.809c-1.897,2.635 -5.018,4.324 -8.286,4.552l0,1.153l4.487,0l0,1.001l-4.487,0l0,2.502l-1,0l0,-2.502l-4.52,0l0,-1.001l4.52,0l0,-1.129Zm0.527,-19.368c3.508,0.016 6.866,2.372 8.016,5.767c0.865,2.554 0.425,5.504 -1.165,7.697c-1.564,2.157 -4.185,3.515 -6.878,3.515c-2.662,0 -5.295,-1.331 -6.878,-3.515c-1.813,-2.501 -2.129,-5.995 -0.694,-8.816c1.405,-2.762 4.39,-4.633 7.544,-4.648c0.019,0 0.037,0 0.055,0Zm-0.051,1c-3.079,0.015 -6.049,2.069 -7.072,5.088c-0.763,2.255 -0.374,4.854 1.028,6.789c1.381,1.904 3.699,3.101 6.068,3.101c2.793,0 5.513,-1.677 6.75,-4.244c1.179,-2.445 0.906,-5.539 -0.776,-7.76c-1.386,-1.828 -3.635,-2.963 -5.95,-2.974c-0.016,0 -0.032,0 -0.048,0Z" style="fill:#fff;fill-rule:nonzero;"/>
    </g>
</svg>
