<?xml version="1.0" encoding="UTF-8" standalone="no"?>
<!DOCTYPE svg PUBLIC "-//W3C//DTD SVG 1.1//EN" "http://www.w3.org/Graphics/SVG/1.1/DTD/svg11.dtd">
<svg width="100%" height="100%" viewBox="0 0 24 24" version="1.1" xmlns="http://www.w3.org/2000/svg" xmlns:xlink="http://www.w3.org/1999/xlink" xml:space="preserve" xmlns:serif="http://www.serif.com/" style="fill-rule:evenodd;clip-rule:evenodd;stroke-linejoin:round;stroke-miterlimit:1.41421;">
    <rect id="dec" x="0" y="0" width="24" height="24" style="fill:none;"/>
    <path d="M4.946,19.543c0.046,1.025 0.356,2.11 1.257,2.652c0.377,0.228 0.828,0.319 1.273,0.321c0.728,0.003 1.48,-0.243 1.933,-0.811c0.219,-0.274 0.388,-0.599 0.444,-0.943l0.967,0.15c-0.041,0.267 -0.134,0.519 -0.248,0.76c-0.387,0.825 -1.137,1.459 -2.042,1.696c-1.282,0.335 -2.742,0.044 -3.612,-1.01c-0.789,-0.956 -1.026,-2.302 -0.937,-3.491c0.093,-1.238 0.587,-2.524 1.72,-3.147c0.519,-0.285 1.117,-0.402 1.71,-0.405c0.011,0 0.022,0 0.033,0c0.92,0.005 1.846,0.316 2.474,1.008c0.656,0.723 0.949,1.743 0.954,2.717c0,0 -0.003,0.113 -0.034,0.192c-0.071,0.181 -0.256,0.303 -0.456,0.311l-5.436,0Zm10.558,-4.228c0.733,0.004 1.457,0.257 2.035,0.719c0.459,0.366 0.842,0.838 1.082,1.374l-0.894,0.399c-0.076,-0.174 -0.181,-0.333 -0.295,-0.485c-0.483,-0.645 -1.268,-1.071 -2.083,-1.025c-0.388,0.022 -0.785,0.166 -1.043,0.464c-0.621,0.719 -0.546,1.908 -0.533,2.83c0.014,0.735 0.283,1.493 0.661,2.054c0.393,0.581 1.043,0.962 1.862,0.844c0.388,-0.056 0.782,-0.226 1.013,-0.556c0.268,-0.383 0.321,-0.885 0.291,-1.355l0.976,-0.064c0.045,0.693 -0.059,1.401 -0.466,1.981c-0.774,1.104 -2.567,1.305 -3.672,0.541c-0.788,-0.545 -1.244,-1.463 -1.48,-2.362c-0.283,-1.081 -0.258,-2.249 -0.019,-3.249c0.164,-0.687 0.524,-1.359 1.137,-1.741c0.415,-0.258 0.913,-0.365 1.398,-0.369c0.01,0 0.02,0 0.03,0Zm-8.089,0.979c-0.667,0.003 -1.34,0.206 -1.782,0.724c-0.363,0.426 -0.543,0.979 -0.63,1.52l-0.004,0.026l4.86,0c-0.102,-0.768 -0.426,-1.544 -1.118,-1.953c-0.394,-0.234 -0.865,-0.318 -1.326,-0.317Zm0.821,-16.294c1.594,0.002 3.208,0.006 4.742,0.366c1.376,0.323 2.675,1.036 3.429,2.327c0.799,1.368 0.97,3.042 0.956,4.642c-0.01,1.203 -0.324,2.418 -1.044,3.396c-0.833,1.132 -2.149,1.872 -3.463,2.299c-2.117,0.687 -4.401,0.802 -6.62,0.585c-0.08,-0.008 -0.196,-0.022 -0.196,-0.022l0,-13.587c0.733,0 1.464,-0.006 2.196,-0.006Zm-0.142,0.978c-0.358,0.001 -0.717,0.002 -1.076,0.004l0,11.709c1.863,0.101 3.771,-0.019 5.536,-0.591c1.328,-0.432 2.608,-1.18 3.283,-2.431c0.458,-0.85 0.568,-1.852 0.543,-2.822c-0.044,-1.725 -0.249,-3.556 -1.709,-4.685c-0.96,-0.742 -2.245,-0.971 -3.481,-1.083c-1.028,-0.094 -2.064,-0.101 -3.096,-0.101Z" style="fill:#fff;fill-rule:nonzero;"/>
</svg>
