<?xml version="1.0" encoding="UTF-8" standalone="no"?>
<!DOCTYPE svg PUBLIC "-//W3C//DTD SVG 1.1//EN" "http://www.w3.org/Graphics/SVG/1.1/DTD/svg11.dtd">
<svg width="100%" height="100%" viewBox="0 0 24 24" version="1.1" xmlns="http://www.w3.org/2000/svg" xmlns:xlink="http://www.w3.org/1999/xlink" xml:space="preserve" xmlns:serif="http://www.serif.com/" style="fill-rule:evenodd;clip-rule:evenodd;stroke-linejoin:round;stroke-miterlimit:1.41421;">
    <rect id="saturn2" x="0" y="0" width="24" height="24" style="fill:none;"/>
    <clipPath id="_clip1">
        <rect x="0" y="0" width="24" height="24"/>
    </clipPath>
    <g clip-path="url(#_clip1)">
        <path d="M9.141,4.052c0.086,-1.131 0.192,-2.259 0.318,-3.383c0.014,-0.122 0.019,-0.249 0.06,-0.359c0,0 0.038,-0.1 0.086,-0.144c0.031,-0.029 0.077,-0.072 0.077,-0.072c0.068,-0.042 0.069,-0.043 0.144,-0.073l0.113,-0.021c0.039,0.002 0.077,0.005 0.115,0.007l0.101,0.03l0.092,0.051l0.39,0.279l-0.212,0.298c-0.103,0.848 -0.168,1.69 -0.238,2.533c-0.023,0.284 -0.047,0.569 -0.07,0.854l7.424,0l0,0.958l-7.498,0c-0.11,1.481 -0.19,2.963 -0.165,4.432c0.006,0.35 0.013,0.7 0.069,1.044c0,0 -0.016,0.027 0.022,0.013c0.289,-0.105 0.551,-0.275 0.813,-0.445c1.44,-0.931 2.791,-2.044 4.396,-2.658c0.903,-0.346 1.915,-0.511 2.827,-0.187c0.845,0.301 1.506,1 1.945,1.803c0.469,0.86 0.618,1.882 0.397,2.856c-0.315,1.391 -1.224,2.612 -2.313,3.458c-0.734,0.571 -1.626,0.904 -2.56,1.083c-1.018,0.194 -2.082,0.278 -3.003,0.789c-0.536,0.298 -1.014,0.704 -1.338,1.217c-0.403,0.639 -0.632,1.414 -0.485,2.142c0.07,0.349 0.283,0.659 0.57,0.871c0.511,0.377 1.161,0.526 1.807,0.587c0.962,0.091 1.937,-0.075 2.88,-0.327c1.875,-0.501 3.675,-1.389 5.071,-2.695c0.359,-0.336 0.69,-0.705 0.969,-1.112l0.28,-0.409l0.791,0.541c-0.176,0.258 -0.348,0.519 -0.54,0.764c-0.953,1.215 -2.257,2.128 -3.651,2.823c-1.549,0.772 -3.234,1.307 -4.959,1.391c-0.935,0.046 -1.895,-0.085 -2.724,-0.494c-0.729,-0.36 -1.31,-0.998 -1.452,-1.855c-0.227,-1.366 0.421,-2.822 1.461,-3.692c0.576,-0.482 1.252,-0.84 1.978,-1.056c1.312,-0.391 2.762,-0.323 3.97,-1.081c0.889,-0.559 1.598,-1.422 2.026,-2.333c0.363,-0.772 0.489,-1.669 0.214,-2.485c-0.329,-0.975 -1.087,-1.847 -2.07,-1.983c-0.757,-0.105 -1.512,0.149 -2.229,0.484c-1.389,0.648 -2.595,1.646 -3.871,2.448c-0.523,0.328 -1.113,0.701 -1.667,0.503c-0.318,-0.113 -0.453,-0.507 -0.503,-0.821c-0.128,-0.799 -0.091,-1.62 -0.07,-2.437c0.028,-1.06 0.077,-2.12 0.145,-3.179l-7.69,0l0,-0.958l7.757,0Zm1.207,-3.281c0.022,-0.024 0.005,-0.007 0,0Z" style="fill:#fff;fill-rule:nonzero;"/>
    </g>
</svg>
