<?xml version="1.0" encoding="UTF-8" standalone="no"?>
<!DOCTYPE svg PUBLIC "-//W3C//DTD SVG 1.1//EN" "http://www.w3.org/Graphics/SVG/1.1/DTD/svg11.dtd">
<svg width="100%" height="100%" viewBox="0 0 24 24" version="1.1" xmlns="http://www.w3.org/2000/svg" xmlns:xlink="http://www.w3.org/1999/xlink" xml:space="preserve" xmlns:serif="http://www.serif.com/" style="fill-rule:evenodd;clip-rule:evenodd;stroke-linejoin:round;stroke-miterlimit:1.41421;">
    <rect id="Sun" x="0" y="0" width="24" height="24" style="fill:none;"/>
    <clipPath id="_clip1">
        <rect x="0" y="0" width="24" height="24"/>
    </clipPath>
    <g clip-path="url(#_clip1)">
        <path d="M11.956,-0.062c4.359,0.021 8.591,2.563 10.631,6.485c2.027,3.896 1.712,8.908 -0.912,12.549c-2.64,3.664 -7.45,5.653 -11.995,4.796c-4.837,-0.912 -8.932,-5.02 -9.66,-10.094c-0.633,-4.417 1.381,-9.115 5.179,-11.682c1.938,-1.309 4.253,-2.027 6.602,-2.053c0.052,-0.001 0.103,-0.001 0.155,-0.001Zm-0.074,1.002c-2.767,0.013 -5.506,1.104 -7.516,2.998c-1.663,1.566 -2.825,3.657 -3.262,5.9c-0.827,4.24 1.055,8.884 4.767,11.328c3.513,2.313 8.373,2.387 11.982,0.072c2.644,-1.696 4.518,-4.555 4.97,-7.706c0.319,-2.226 -0.057,-4.55 -1.079,-6.558c-1.81,-3.56 -5.628,-5.988 -9.72,-6.034c-0.047,0 -0.095,0 -0.142,0Zm0.061,7.011c1.83,0.017 3.546,1.418 3.904,3.224c0.452,2.277 -1.39,4.772 -3.904,4.788c-1.904,0.012 -3.71,-1.511 -3.99,-3.421c-0.316,-2.161 1.387,-4.421 3.682,-4.581c0.102,-0.008 0.205,-0.01 0.308,-0.01Z" style="fill:#fff;fill-rule:nonzero;"/>
    </g>
</svg>
