<?xml version="1.0" encoding="UTF-8" standalone="no"?>
<!DOCTYPE svg PUBLIC "-//W3C//DTD SVG 1.1//EN" "http://www.w3.org/Graphics/SVG/1.1/DTD/svg11.dtd">
<svg width="100%" height="100%" viewBox="0 0 24 24" version="1.1" xmlns="http://www.w3.org/2000/svg" xmlns:xlink="http://www.w3.org/1999/xlink" xml:space="preserve" xmlns:serif="http://www.serif.com/" style="fill-rule:evenodd;clip-rule:evenodd;stroke-linejoin:round;stroke-miterlimit:1.41421;">
    <rect id="jupiter" x="0" y="0" width="24" height="24" style="fill:none;"/>
    <clipPath id="_clip1">
        <rect x="0" y="0" width="24" height="24"/>
    </clipPath>
    <g clip-path="url(#_clip1)">
        <path d="M16.506,19.489l0,-13.838l0.011,-4.657l0.034,-0.274l0.07,-0.08l0.006,-0.141l0.075,-0.101l0,-0.398l0.596,0c0,0.133 0,0.265 0,0.398l0.075,0.101l0.006,0.141l0.07,0.08l0.034,0.274l0.011,4.657l0,13.838l4.533,0l0,0.988l-4.533,0l0,3.365l-0.366,0.158l-0.256,0l-0.366,-0.158l0,-3.365l-13.142,0l-0.13,-0.018c-0.106,-0.045 -0.141,-0.047 -0.224,-0.132c-0.152,-0.157 -0.197,-0.395 -0.045,-0.637c1.395,-2.22 2.853,-4.384 4.346,-6.529c0.807,-1.159 1.618,-2.309 2.515,-3.407c1.13,-1.391 1.619,-3.286 1.199,-5.016c-0.248,-1.021 -0.845,-1.993 -1.775,-2.538c-1.238,-0.725 -2.894,-0.637 -4.089,0.224c-1.16,0.837 -1.82,2.284 -1.805,3.741c0.013,1.266 0.508,2.507 1.215,3.555l-0.819,0.552c-1.066,-1.581 -1.655,-3.55 -1.251,-5.413c0.395,-1.822 1.765,-3.444 3.564,-3.959c0.423,-0.121 0.86,-0.177 1.304,-0.177c1.062,0.008 2.129,0.347 2.949,1.021c1.41,1.159 1.992,3.183 1.806,4.959c-0.14,1.339 -0.683,2.634 -1.532,3.675c-1.019,1.251 -1.944,2.58 -2.86,3.91c-1.174,1.705 -2.321,3.429 -3.443,5.164l-0.024,0.037l12.241,0Z" style="fill:#fff;fill-rule:nonzero;"/>
    </g>
</svg>
