<?xml version="1.0" encoding="UTF-8" standalone="no"?>
<!DOCTYPE svg PUBLIC "-//W3C//DTD SVG 1.1//EN" "http://www.w3.org/Graphics/SVG/1.1/DTD/svg11.dtd">
<svg width="100%" height="100%" viewBox="0 0 24 24" version="1.1" xmlns="http://www.w3.org/2000/svg" xmlns:xlink="http://www.w3.org/1999/xlink" xml:space="preserve" xmlns:serif="http://www.serif.com/" style="fill-rule:evenodd;clip-rule:evenodd;stroke-linejoin:round;stroke-miterlimit:1.41421;">
    <rect id="pallas2" x="0" y="0" width="24" height="24" style="fill:none;"/>
    <clipPath id="_clip1">
        <rect x="0" y="0" width="24" height="24"/>
    </clipPath>
    <g clip-path="url(#_clip1)">
        <path d="M11.5,17.5l-8.5,-8.5l9,-9c3,3 6,6 9,9l-8.5,8.5l0,2l4.5,0l0,1l-4.5,0l0,3.5l-1,0l0,-3.5l-4.5,0l0,-1l4.5,0l0,-2Zm-7.086,-8.5l7.586,7.586l7.586,-7.586l-7.586,-7.586c-2.529,2.529 -5.057,5.057 -7.586,7.586Z" style="fill:#fff;fill-rule:nonzero;"/>
    </g>
</svg>
