<svg xmlns="http://www.w3.org/2000/svg" id="cancer" viewBox="0 0 32 32">
	<style>
		.st0{fill:#fff}
	</style>
	<path d="M16 0C7.2 0 0 7.2 0 16s7.2 16 16 16 16-7.2 16-16S24.8 0 16 0zm0 30.9C7.8 30.9 1.1 24.2 1.1 16S7.8 1.1 16 1.1 30.9 7.8 30.9 16 24.2 30.9 16 30.9z" class="st0"/>
	<path d="M24.7 11.8c-.3-.5-.7-.9-1.2-1.2-1.5-1.1-3.8-1.7-6.3-1.7-4.1 0-9.9 1.4-9.9 4.4 0 .3.2.6.6.6s.6-.2.6-.6c0-1.9 4.7-3.3 8.8-3.3.9 0 1.8.1 2.6.3-1.5.6-2.6 2.1-2.6 3.9 0 2.3 1.9 4.1 4.1 4.1s4.1-1.9 4.1-4.1v-.3c-.1-.8-.4-1.5-.8-2.1zm-3.5 5.3c-1.7 0-3-1.4-3-3s1.4-3 3-3c.5 0 1 .1 1.4.4.5.3.9.7 1.1 1.1.3.5.5 1 .5 1.6.1 1.5-1.3 2.9-3 2.9z" class="st0"/>
	<path d="M24.3 18.8c-.3 0-.6.2-.6.6 0 1.9-4.7 3.3-8.8 3.3-.9 0-1.8-.1-2.6-.3 1.5-.6 2.6-2.1 2.6-3.9 0-2.3-1.9-4.1-4.1-4.1s-4.1 1.9-4.1 4.1v.3c0 .7.3 1.4.7 2 .3.5.7.9 1.2 1.2 1.5 1.1 3.8 1.7 6.3 1.7 4.1 0 9.9-1.4 9.9-4.4 0-.3-.2-.5-.5-.5zm-13.5-3.4c1.7 0 3 1.4 3 3 0 1.7-1.4 3-3 3-.5 0-1-.1-1.4-.4-.5-.3-.9-.7-1.1-1.1-.3-.5-.5-1-.5-1.6-.1-1.5 1.3-2.9 3-2.9z" class="st0"/>
</svg>