
<svg xmlns="http://www.w3.org/2000/svg" id="capricorn" viewBox="0 0 32 32">
	<style>
		.st0{fill:#fff}
	</style>
	<path d="M16 0C7.2 0 0 7.2 0 16s7.2 16 16 16 16-7.2 16-16S24.8 0 16 0zm0 30.9C7.8 30.9 1.1 24.2 1.1 16S7.8 1.1 16 1.1 30.9 7.8 30.9 16 24.2 30.9 16 30.9z" class="st0"/>
	<path d="M22.6 17.1c-1.1 0-2.1.4-2.8 1.2v-7.8c0-2-1.6-3.5-3.8-3.5-1.5 0-2.7.7-3.4 1.7C12.1 7.6 10.9 7 9.5 7c-2.2 0-4 1.5-4 3.5 0 .3.2.6.6.6s.6-.2.6-.6c0-1.5 1.4-2.4 2.9-2.4s2.7 1 2.7 2.4V21c0 .3.2.6.6.6s.6-.2.6-.6V10.5c0-1.5 1.4-2.4 2.9-2.4s2.7 1 2.7 2.4V21c0 1.2-.5 3.9-5 3.9-.3 0-.6.2-.6.6 0 .3.2.6.6.6 3.1 0 4.9-1.3 5.6-2.8.7 1 1.9 1.7 3.2 1.7 2.1 0 3.9-1.7 3.9-3.9s-2.1-4-4.2-4zm0 6.6c-1.5 0-2.8-1.2-2.8-2.8s1.2-2.8 2.8-2.8 2.8 1.2 2.8 2.8-1.3 2.8-2.8 2.8z" class="st0"/>
</svg>