<?xml version="1.0" encoding="iso-8859-1"?>
<!-- Generator: Adobe Illustrator 19.0.0, SVG Export Plug-In . SVG Version: 6.00 Build 0)  -->
<svg version="1.1" id="Capa_1" xmlns="http://www.w3.org/2000/svg" xmlns:xlink="http://www.w3.org/1999/xlink" x="0px" y="0px"
	 viewBox="0 0 58 58" style="enable-background:new 0 0 58 58;" xml:space="preserve">



    <g fill="none" fill-rule="nonzero" stroke="none" stroke-width="1" stroke-linecap="butt" stroke-linejoin="miter"
   stroke-miterlimit="10" stroke-dasharray="" stroke-dashoffset="0" font-family="none" font-weight="none" font-size="none"
   text-anchor="none" style="mix-blend-mode: normal">
    <g stroke-opacity="0.1" stroke="#ffffff">
        <path d="M200.00762,301.74531c-0.3012,-34.51433 8.33493,-68.51917 25.06844,-98.70723l43.73099,24.24048c-12.55014,22.64105 -19.02723,48.14468 -18.80133,74.03042z"
              fill-opacity="0.3" fill="#808080"/>
        <path d="M225.92886,201.51529c16.99632,-30.04089 41.47784,-55.17188 71.06352,-72.94875l25.7519,42.85837c-22.18926,13.33265 -40.55041,32.1809 -53.29764,54.71156z"
              fill-opacity="0.3" fill="#808080"/>
        <path d="M298.49233,127.67417c29.73968,-17.51801 63.50681,-27.04133 98.01719,-27.64371l0.87262,49.99238c-25.88279,0.45179 -51.20813,7.59427 -73.51289,20.73278z"
              fill-opacity="0.3" fill="#808080"/>
        <path d="M398.25469,100.00762c34.51433,-0.3012 68.51917,8.33493 98.70723,25.06844l-24.24048,43.73099c-22.64105,-12.55014 -48.14468,-19.02723 -74.03042,-18.80133z"
              fill-opacity="0.3" fill="#808080"/>
        <path d="M498.48471,125.92886c30.04089,16.99632 55.17188,41.47784 72.94875,71.06352l-42.85837,25.7519c-13.33265,-22.18926 -32.1809,-40.55041 -54.71156,-53.29764z"
              fill-opacity="0.3" fill="#808080"/>
        <path d="M572.32583,198.49233c17.51801,29.73968 27.04133,63.50681 27.64371,98.01719l-49.99238,0.87262c-0.45179,-25.88279 -7.59427,-51.20813 -20.73278,-73.51289z"
              fill-opacity="0.3" fill="#808080"/>
        <path d="M599.99238,298.25469c0.3012,34.51433 -8.33493,68.51917 -25.06844,98.70723l-43.73099,-24.24048c12.55014,-22.64105 19.02723,-48.14468 18.80133,-74.03042z"
              fill-opacity="0.3" fill="#808080"/>
        <path d="M574.07114,398.48471c-16.99632,30.04089 -41.47784,55.17188 -71.06352,72.94875l-25.7519,-42.85837c22.18926,-13.33265 40.55041,-32.1809 53.29764,-54.71156z"
              fill-opacity="0.3" fill="#808080"/>
        <path d="M501.50767,472.32583c-29.73968,17.51801 -63.50681,27.04133 -98.01719,27.64371l-0.87262,-49.99238c25.88279,-0.45179 51.20813,-7.59427 73.51289,-20.73278z"
              fill-opacity="0.3" fill="#808080"/>
        <path d="M401.74531,499.99238c-34.51433,0.3012 -68.51917,-8.33493 -98.70723,-25.06844l24.24048,-43.73099c22.64105,12.55014 48.14468,19.02723 74.03042,18.80133z"
              fill-opacity="0.3" fill="#808080"/>
        <path d="M301.51529,474.07114c-30.04089,-16.99632 -55.17188,-41.47784 -72.94875,-71.06352l42.85837,-25.7519c13.33265,22.18926 32.1809,40.55041 54.71156,53.29764z"
              fill-opacity="0.3" fill="#808080"/>
        <path d="M227.67417,401.50767c-17.51801,-29.73968 -27.04133,-63.50681 -27.64371,-98.01719l49.99238,-0.87262c0.45179,25.88279 7.59427,51.20813 20.73278,73.51289z"
              fill-opacity="0.3" fill="#808080"/>
        <path d="M250.00571,301.30898c-0.2259,-25.88575 6.2512,-51.38938 18.80133,-74.03042l34.98479,19.39238c-9.20343,16.60343 -13.9533,35.3061 -13.78764,54.28898z"
              fill-opacity="0.4" fill="#808080"/>
        <path d="M269.44665,226.13647c12.74724,-22.53066 31.10838,-41.37891 53.29764,-54.71156l20.60152,34.28669c-16.27212,9.77728 -29.73696,23.59932 -39.08494,40.12181z"
              fill-opacity="0.4" fill="#808080"/>
        <path d="M323.86925,170.75563c22.30476,-13.13851 47.6301,-20.28099 73.51289,-20.73278l0.6981,39.99391c-18.98071,0.33131 -37.55263,5.56913 -53.90946,15.20404z"
              fill-opacity="0.4" fill="#808080"/>
        <path d="M398.69102,150.00571c25.88575,-0.2259 51.38938,6.2512 74.03042,18.80133l-19.39238,34.98479c-16.60343,-9.20343 -35.3061,-13.9533 -54.28898,-13.78764z"
              fill-opacity="0.4" fill="#808080"/>
        <path d="M473.86353,169.44665c22.53066,12.74724 41.37891,31.10838 54.71156,53.29764l-34.28669,20.60152c-9.77728,-16.27212 -23.59932,-29.73696 -40.12181,-39.08494z"
              fill-opacity="0.4" fill="#808080"/>
        <path d="M529.24437,223.86925c13.13851,22.30476 20.28099,47.6301 20.73278,73.51289l-39.99391,0.6981c-0.33131,-18.98071 -5.56913,-37.55263 -15.20404,-53.90946z"
              fill-opacity="0.4" fill="#808080"/>
        <path d="M549.99429,298.69102c0.2259,25.88575 -6.2512,51.38938 -18.80133,74.03042l-34.98479,-19.39238c9.20343,-16.60343 13.9533,-35.3061 13.78764,-54.28898z"
              fill-opacity="0.4" fill="#808080"/>
        <path d="M530.55335,373.86353c-12.74724,22.53066 -31.10838,41.37891 -53.29764,54.71156l-20.60152,-34.28669c16.27212,-9.77728 29.73696,-23.59932 39.08494,-40.12181z"
              fill-opacity="0.4" fill="#808080"/>
        <path d="M476.13075,429.24437c-22.30476,13.13851 -47.6301,20.28099 -73.51289,20.73278l-0.6981,-39.99391c18.98071,-0.33131 37.55263,-5.56913 53.90946,-15.20404z"
              fill-opacity="0.4" fill="#808080"/>
        <path d="M401.30898,449.99429c-25.88575,0.2259 -51.38938,-6.2512 -74.03042,-18.80133l19.39238,-34.98479c16.60343,9.20343 35.3061,13.9533 54.28898,13.78764z"
              fill-opacity="0.4" fill="#808080"/>
        <path d="M326.13647,430.55335c-22.53066,-12.74724 -41.37891,-31.10838 -54.71156,-53.29764l34.28669,-20.60152c9.77728,16.27212 23.59932,29.73696 40.12181,39.08494z"
              fill-opacity="0.4" fill="#808080"/>
        <path d="M270.75563,376.13075c-13.13851,-22.30476 -20.28099,-47.6301 -20.73278,-73.51289l39.99391,-0.6981c0.33131,18.98071 5.56913,37.55263 15.20404,53.90946z"
              fill-opacity="0.4" fill="#808080"/>
    </g>
    <g fill="none" stroke-opacity="0.3" stroke="#ffffff">
        <path d="M209.79917,190.1875c3.59433,-6.22556 7.49215,-12.27089 11.67938,-18.11416l15.95212,11.43112c-3.81307,5.32114 -7.36259,10.82628 -10.63574,16.49554z"/>
        <path d="M221.47855,172.07334c4.18723,-5.84327 8.65883,-11.47744 13.39864,-16.88216l14.75486,12.93966c-4.31628,4.92177 -8.3883,10.05249 -12.20138,15.37362z"/>
        <path d="M234.87718,155.19118c4.73981,-5.40472 9.74212,-10.57346 14.98886,-15.48757l13.4155,14.32358c-4.77791,4.475 -9.33323,9.18188 -13.6495,14.10365z"/>
        <path d="M249.86604,139.7036c5.24674,-4.91411 10.73159,-9.56765 16.43473,-13.94383l11.94694,15.56956c-5.19353,3.98513 -10.18827,8.22285 -14.96617,12.69785z"/>
        <path d="M266.30077,125.75977c5.70314,-4.37618 11.61771,-8.4697 17.72233,-12.2658l10.36333,16.66559c-5.55913,3.45689 -10.94519,7.18463 -16.13872,11.16977z"/>
        <path d="M284.0231,113.49397c6.10462,-3.7961 12.39194,-7.29019 18.83925,-10.46965l8.67992,17.60113c-5.8712,2.89535 -11.5967,6.07722 -17.15583,9.53411z"/>
        <path d="M302.86235,103.02432c6.44731,-3.17946 13.04683,-6.04046 19.77474,-8.57266l6.91291,18.36715c-6.12672,2.30593 -12.13653,4.91128 -18.00773,7.80664z"/>
        <path d="M322.63708,94.45166c6.7279,-2.5322 13.57608,-4.73256 20.51978,-6.59312l5.07932,18.95629c-6.32324,1.69431 -12.55948,3.69805 -18.6862,6.00398z"/>
        <path d="M343.15687,87.85854c6.94371,-1.86056 13.97458,-3.37908 21.06721,-4.55008l3.19682,19.36288c-6.45886,1.06636 -12.86147,2.44919 -19.18471,4.1435z"/>
        <path d="M364.22408,83.30846c7.09264,-1.171 14.23849,-1.99306 21.41176,-2.46322l1.28354,19.58298c-6.53228,0.42815 -13.03961,1.17676 -19.49847,2.24312z"/>
        <path d="M385.63584,80.84523c7.17326,-0.47016 14.36528,-0.58785 21.55009,-0.35264l-0.64211,19.61449c-6.54279,-0.21419 -13.09216,-0.10702 -19.62444,0.32113z"/>
        <path d="M407.18593,80.49259c7.18481,0.23521 14.35373,0.82302 21.48089,1.76133l-2.56158,19.45711c-6.49029,-0.85446 -13.01863,-1.38976 -19.56142,-1.60395z"/>
        <path d="M428.66681,82.25392c7.12715,0.93831 14.20394,2.22597 21.20481,3.85835l-4.45637,19.11234c-6.37529,-1.48651 -12.81972,-2.65911 -19.31001,-3.51358z"/>
        <path d="M449.87162,86.11227c7.00087,1.63237 13.91736,3.60748 20.72452,5.9182l-6.30825,18.5835c-6.19889,-2.10424 -12.49735,-3.90286 -18.87264,-5.38937z"/>
        <path d="M470.59614,92.03047c6.80715,2.31072 13.49675,4.95425 20.04464,7.92106l-8.09938,17.8757c-5.96279,-2.7017 -12.05462,-5.10902 -18.25351,-7.21326z"/>
        <path d="M490.64078,99.95153c6.54789,2.96681 12.94616,6.25331 19.17172,9.84764l-9.8125,16.99575c-5.66926,-3.27315 -11.49581,-6.26598 -17.45859,-8.96768z"/>
        <path d="M509.8125,109.79917c6.22556,3.59433 12.27089,7.49215 18.11416,11.67938l-11.43112,15.95212c-5.32114,-3.81307 -10.82628,-7.36259 -16.49554,-10.63574z"/>
        <path d="M527.92666,121.47855c5.84327,4.18723 11.47744,8.65883 16.88216,13.39864l-12.93966,14.75486c-4.92177,-4.31628 -10.05249,-8.3883 -15.37362,-12.20138z"/>
        <path d="M544.80882,134.87718c5.40472,4.73981 10.57346,9.74212 15.48757,14.98886l-14.32358,13.4155c-4.475,-4.77791 -9.18188,-9.33323 -14.10365,-13.6495z"/>
        <path d="M560.2964,149.86604c4.91411,5.24674 9.56765,10.73159 13.94383,16.43473l-15.56956,11.94694c-3.98513,-5.19353 -8.22285,-10.18827 -12.69785,-14.96617z"/>
        <path d="M574.24023,166.30077c4.37618,5.70314 8.4697,11.61771 12.2658,17.72233l-16.66559,10.36333c-3.45689,-5.55913 -7.18463,-10.94519 -11.16977,-16.13872z"/>
        <path d="M586.50603,184.0231c3.7961,6.10462 7.29019,12.39194 10.46965,18.83925l-17.60113,8.67992c-2.89535,-5.8712 -6.07722,-11.5967 -9.53411,-17.15583z"/>
        <path d="M596.97568,202.86235c3.17946,6.44731 6.04046,13.04683 8.57266,19.77474l-18.36715,6.91291c-2.30593,-6.12672 -4.91128,-12.13653 -7.80664,-18.00773z"/>
        <path d="M605.54834,222.63708c2.5322,6.7279 4.73256,13.57608 6.59312,20.51978l-18.95629,5.07932c-1.69431,-6.32324 -3.69805,-12.55948 -6.00398,-18.6862z"/>
        <path d="M612.14146,243.15687c1.86056,6.94371 3.37908,13.97458 4.55008,21.06721l-19.36288,3.19682c-1.06636,-6.45886 -2.44919,-12.86147 -4.1435,-19.18471z"/>
        <path d="M616.69154,264.22408c1.171,7.09264 1.99306,14.23849 2.46322,21.41176l-19.58298,1.28354c-0.42815,-6.53228 -1.17676,-13.03961 -2.24312,-19.49847z"/>
        <path d="M619.15477,285.63584c0.47016,7.17326 0.58785,14.36528 0.35264,21.55009l-19.61449,-0.64211c0.21419,-6.54279 0.10702,-13.09216 -0.32113,-19.62444z"/>
        <path d="M619.50741,307.18593c-0.23521,7.18481 -0.82302,14.35373 -1.76133,21.48089l-19.45711,-2.56158c0.85446,-6.49029 1.38976,-13.01863 1.60395,-19.56142z"/>
        <path d="M617.74608,328.66681c-0.93831,7.12715 -2.22597,14.20394 -3.85835,21.20481l-19.11234,-4.45637c1.48651,-6.37529 2.65911,-12.81972 3.51358,-19.31001z"/>
        <path d="M613.88773,349.87162c-1.63237,7.00087 -3.60748,13.91736 -5.9182,20.72452l-18.5835,-6.30825c2.10424,-6.19889 3.90286,-12.49735 5.38937,-18.87264z"/>
        <path d="M607.96953,370.59614c-2.31072,6.80715 -4.95425,13.49675 -7.92106,20.04464l-17.8757,-8.09938c2.7017,-5.96279 5.10902,-12.05462 7.21326,-18.25351z"/>
        <path d="M600.04847,390.64078c-2.96681,6.54789 -6.25331,12.94616 -9.84764,19.17172l-16.99575,-9.8125c3.27315,-5.66926 6.26598,-11.49581 8.96768,-17.45859z"/>
        <path d="M590.20083,409.8125c-3.59433,6.22556 -7.49215,12.27089 -11.67938,18.11416l-15.95212,-11.43112c3.81307,-5.32114 7.36259,-10.82628 10.63574,-16.49554z"/>
        <path d="M578.52145,427.92666c-4.18723,5.84327 -8.65883,11.47744 -13.39864,16.88216l-14.75486,-12.93966c4.31628,-4.92177 8.3883,-10.05249 12.20138,-15.37362z"/>
        <path d="M565.12282,444.80882c-4.73981,5.40472 -9.74212,10.57346 -14.98886,15.48757l-13.4155,-14.32358c4.77791,-4.475 9.33323,-9.18188 13.6495,-14.10365z"/>
        <path d="M550.13396,460.2964c-5.24674,4.91411 -10.73159,9.56765 -16.43473,13.94383l-11.94694,-15.56956c5.19353,-3.98513 10.18827,-8.22285 14.96617,-12.69785z"/>
        <path d="M533.69923,474.24023c-5.70314,4.37618 -11.61771,8.4697 -17.72233,12.2658l-10.36333,-16.66559c5.55913,-3.45689 10.94519,-7.18463 16.13872,-11.16977z"/>
        <path d="M515.9769,486.50603c-6.10462,3.7961 -12.39194,7.29019 -18.83925,10.46965l-8.67992,-17.60113c5.8712,-2.89535 11.5967,-6.07722 17.15583,-9.53411z"/>
        <path d="M497.13765,496.97568c-6.44731,3.17946 -13.04683,6.04046 -19.77474,8.57266l-6.91291,-18.36715c6.12672,-2.30593 12.13653,-4.91128 18.00773,-7.80664z"/>
        <path d="M477.36292,505.54834c-6.7279,2.5322 -13.57608,4.73256 -20.51978,6.59312l-5.07932,-18.95629c6.32324,-1.69431 12.55948,-3.69805 18.6862,-6.00398z"/>
        <path d="M456.84313,512.14146c-6.94371,1.86056 -13.97458,3.37908 -21.06721,4.55008l-3.19682,-19.36288c6.45886,-1.06636 12.86147,-2.44919 19.18471,-4.1435z"/>
        <path d="M435.77592,516.69154c-7.09264,1.171 -14.23849,1.99306 -21.41176,2.46322l-1.28354,-19.58298c6.53228,-0.42815 13.03961,-1.17676 19.49847,-2.24312z"/>
        <path d="M414.36416,519.15477c-7.17326,0.47016 -14.36528,0.58785 -21.55009,0.35264l0.64211,-19.61449c6.54279,0.21419 13.09216,0.10702 19.62444,-0.32113z"/>
        <path d="M392.81407,519.50741c-7.18481,-0.23521 -14.35373,-0.82302 -21.48089,-1.76133l2.56158,-19.45711c6.49029,0.85446 13.01863,1.38976 19.56142,1.60395z"/>
        <path d="M371.33319,517.74608c-7.12715,-0.93831 -14.20394,-2.22597 -21.20481,-3.85835l4.45637,-19.11234c6.37529,1.48651 12.81972,2.65911 19.31001,3.51358z"/>
        <path d="M350.12838,513.88773c-7.00087,-1.63237 -13.91736,-3.60748 -20.72452,-5.9182l6.30825,-18.5835c6.19889,2.10424 12.49735,3.90286 18.87264,5.38937z"/>
        <path d="M329.40386,507.96953c-6.80715,-2.31072 -13.49675,-4.95425 -20.04464,-7.92106l8.09938,-17.8757c5.96279,2.7017 12.05462,5.10902 18.25351,7.21326z"/>
        <path d="M309.35922,500.04847c-6.54789,-2.96681 -12.94616,-6.25331 -19.17172,-9.84764l9.8125,-16.99575c5.66926,3.27315 11.49581,6.26598 17.45859,8.96768z"/>
        <path d="M290.1875,490.20083c-6.22556,-3.59433 -12.27089,-7.49215 -18.11416,-11.67938l11.43112,-15.95212c5.32114,3.81307 10.82628,7.36259 16.49554,10.63574z"/>
        <path d="M272.07334,478.52145c-5.84327,-4.18723 -11.47744,-8.65883 -16.88216,-13.39864l12.93966,-14.75486c4.92177,4.31628 10.05249,8.3883 15.37362,12.20138z"/>
        <path d="M255.19118,465.12282c-5.40472,-4.73981 -10.57346,-9.74212 -15.48757,-14.98886l14.32358,-13.4155c4.475,4.77791 9.18188,9.33323 14.10365,13.6495z"/>
        <path d="M239.7036,450.13396c-4.91411,-5.24674 -9.56765,-10.73159 -13.94383,-16.43473l15.56956,-11.94694c3.98513,5.19353 8.22285,10.18827 12.69785,14.96617z"/>
        <path d="M225.75977,433.69923c-4.37618,-5.70314 -8.4697,-11.61771 -12.2658,-17.72233l16.66559,-10.36333c3.45689,5.55913 7.18463,10.94519 11.16977,16.13872z"/>
        <path d="M213.49397,415.9769c-3.7961,-6.10462 -7.29019,-12.39194 -10.46965,-18.83925l17.60113,-8.67992c2.89535,5.8712 6.07722,11.5967 9.53411,17.15583z"/>
        <path d="M203.02432,397.13765c-3.17946,-6.44731 -6.04046,-13.04683 -8.57266,-19.77474l18.36715,-6.91291c2.30593,6.12672 4.91128,12.13653 7.80664,18.00773z"/>
        <path d="M194.45166,377.36292c-2.5322,-6.7279 -4.73256,-13.57608 -6.59312,-20.51978l18.95629,-5.07932c1.69431,6.32324 3.69805,12.55948 6.00398,18.6862z"/>
        <path d="M187.85854,356.84313c-1.86056,-6.94371 -3.37908,-13.97458 -4.55008,-21.06721l19.36288,-3.19682c1.06636,6.45886 2.44919,12.86147 4.1435,19.18471z"/>
        <path d="M183.30846,335.77592c-1.171,-7.09264 -1.99306,-14.23849 -2.46322,-21.41176l19.58298,-1.28354c0.42815,6.53228 1.17676,13.03961 2.24312,19.49847z"/>
        <path d="M180.84523,314.36416c-0.47016,-7.17326 -0.58785,-14.36528 -0.35264,-21.55009l19.61449,0.64211c-0.21419,6.54279 -0.10702,13.09216 0.32113,19.62444z"/>
        <path d="M180.49259,292.81407c0.23521,-7.18481 0.82302,-14.35373 1.76133,-21.48089l19.45711,2.56158c-0.85446,6.49029 -1.38976,13.01863 -1.60395,19.56142z"/>
        <path d="M182.25392,271.33319c0.93831,-7.12715 2.22597,-14.20394 3.85835,-21.20481l19.11234,4.45637c-1.48651,6.37529 -2.65911,12.81972 -3.51358,19.31001z"/>
        <path d="M186.11227,250.12838c1.63237,-7.00087 3.60748,-13.91736 5.9182,-20.72452l18.5835,6.30825c-2.10424,6.19889 -3.90286,12.49735 -5.38937,18.87264z"/>
        <path d="M192.03047,229.40386c2.31072,-6.80715 4.95425,-13.49675 7.92106,-20.04464l17.8757,8.09938c-2.7017,5.96279 -5.10902,12.05462 -7.21326,18.25351z"/>
        <path d="M199.95153,209.35922c2.96681,-6.54789 6.25331,-12.94616 9.84764,-19.17172l16.99575,9.8125c-3.27315,5.66926 -6.26598,11.49581 -8.96768,17.45859z"/>
    </g>
    <g fill-opacity="0.5" fill="#ffffff" stroke="none" font-family="sans-serif" font-weight="normal" font-size="10"
       text-anchor="start">
        <text x="571.33658" y="418.69563">29</text>
        <text x="559.34335" y="435.43216">4</text>
        <text x="545.76741" y="450.91256">7</text>
        <text x="530.73949" y="464.98774">33</text>
        <text x="514.40432" y="477.52215">31</text>
        <text x="496.91923" y="488.39508">56</text>
        <text x="478.4526" y="497.50181">62</text>
        <text x="459.18228" y="504.75465">53</text>
        <text x="439.29384" y="510.08374">39</text>
        <text x="418.97883" y="513.43776">52</text>
        <text x="398.4329" y="514.78441">15</text>
        <text x="377.8539" y="514.11073">12</text>
        <text x="357.44002" y="511.42319">45</text>
        <text x="337.38788" y="506.74768">35</text>
        <text x="317.89056" y="500.12924">16</text>
        <text x="299.13586" y="491.63159">20</text>
        <text x="281.30437" y="481.33658">8</text>
        <text x="264.56784" y="469.34335">23</text>
        <text x="249.08744" y="455.76741">2</text>
        <text x="235.01226" y="440.73949">24</text>
        <text x="222.47785" y="424.40432">27</text>
        <text x="211.60492" y="406.91923">3</text>
        <text x="202.49819" y="388.4526">42</text>
        <text x="195.24535" y="369.18228">51</text>
        <text x="189.91626" y="349.29384">21</text>
        <text x="186.56224" y="328.97883">17</text>
        <text x="185.21559" y="308.4329">25</text>
        <text x="185.88927" y="287.8539">36</text>
        <text x="188.57681" y="267.44002">22</text>
        <text x="193.25232" y="247.38788">63</text>
        <text x="199.87076" y="227.89056">37</text>
        <text x="208.36841" y="209.13586">55</text>
        <text x="218.66342" y="191.30437">30</text>
        <text x="230.65665" y="174.56784">49</text>
        <text x="244.23259" y="159.08744">13</text>
        <text x="259.26051" y="145.01226">19</text>
        <text x="275.59568" y="132.47785">41</text>
        <text x="293.08077" y="121.60492">60</text>
        <text x="311.5474" y="112.49819">61</text>
        <text x="330.81772" y="105.24535">54</text>
        <text x="350.70616" y="99.91626">38</text>
        <text x="371.02117" y="96.56224">58</text>
        <text x="391.5671" y="95.21559">10</text>
        <text x="412.1461" y="95.88927">11</text>
        <text x="432.55998" y="98.57681">26</text>
        <text x="452.61212" y="103.25232">5</text>
        <text x="472.10944" y="109.87076">9</text>
        <text x="490.86414" y="118.36841">34</text>
        <text x="508.69563" y="128.66342">14</text>
        <text x="525.43216" y="140.65665">43</text>
        <text x="540.91256" y="154.23259">1</text>
        <text x="554.98774" y="169.26051">44</text>
        <text x="567.52215" y="185.59568">28</text>
        <text x="578.39508" y="203.08077">50</text>
        <text x="587.50181" y="221.5474">32</text>
        <text x="594.75465" y="240.81772">57</text>
        <text x="600.08374" y="260.70616">48</text>
        <text x="603.43776" y="281.02117">18</text>
        <text x="604.78441" y="301.5671">46</text>
        <text x="604.11073" y="322.1461">6</text>
        <text x="601.42319" y="342.55998">47</text>
        <text x="596.74768" y="362.61212">64</text>
        <text x="590.12924" y="382.10944">40</text>
        <text x="581.63159" y="400.86414">59</text>
    </g>
</g>

</svg>