
<svg xmlns="http://www.w3.org/2000/svg" id="libra" viewBox="0 0 32 32">
	<style>
		.st0{fill:#fff}
	</style>
	<path d="M16 0C7.2 0 0 7.2 0 16s7.2 16 16 16 16-7.2 16-16S24.8 0 16 0zm0 30.9C7.8 30.9 1.1 24.2 1.1 16S7.8 1.1 16 1.1 30.9 7.8 30.9 16 24.2 30.9 16 30.9z" class="st0"/>
	<path d="M27 18.8H5c-.3 0-.6.2-.6.6 0 .3.2.6.6.6h22c.3 0 .6-.2.6-.6 0-.4-.3-.6-.6-.6zM5 16.6h5c.3 0 .6-.2.6-.6 0-3 2.5-5.5 5.5-5.5s5.5 2.5 5.5 5.5c0 .3.2.6.6.6h5c.3 0 .6-.2.6-.6s-.2-.6-.6-.6h-4.4c-.3-3.4-3.1-6.1-6.6-6.1S9.9 12 9.6 15.4H5c-.3 0-.6.2-.6.6s.3.6.6.6z" class="st0"/>
</svg>