
<svg xmlns="http://www.w3.org/2000/svg" id="lion" viewBox="0 0 32 32">
	<style>
		.st0{fill:#fff}
	</style>
	<path d="M16 0C7.2 0 0 7.2 0 16s7.2 16 16 16 16-7.2 16-16S24.8 0 16 0zm0 30.9C7.8 30.9 1.1 24.2 1.1 16S7.8 1.1 16 1.1 30.9 7.8 30.9 16 24.2 30.9 16 30.9z" class="st0"/>
	<path d="M25.4 18.8c-.3 0-.6.2-.6.6 0 2-1.6 3.6-3.6 3.6h-.1c-1.1 0-2-.6-2.5-1.6s-.3-2.2.4-3.1c.8-1 1.5-2.2 2.1-3.5.8-1.7.6-3.7-.3-5.3-.9-1.5-2.5-2.5-4.2-2.7h-.5c-3.3 0-5.8 2.4-5.8 5.5v3.4c-2 .3-3.6 2-3.6 4.1 0 2.3 1.9 4.1 4.1 4.1s4.1-1.9 4.1-4.1c0-2.1-1.6-3.8-3.6-4.1v-3.4c0-2.5 2-4.4 4.7-4.4h.4c1.4.1 2.6.9 3.4 2.1.8 1.3.9 2.9.3 4.3-.6 1.3-1.2 2.4-2 3.3-1 1.2-1.2 2.8-.6 4.3.6 1.4 1.9 2.2 3.4 2.3h.1c2.6 0 4.7-2.1 4.7-4.7.2-.5 0-.7-.3-.7zm-11.3.8c0 1.7-1.4 3-3 3s-3-1.4-3-3 1.4-3 3-3 3 1.3 3 3z" class="st0"/>
</svg>