<svg version="1.1" xmlns="http://www.w3.org/2000/svg" xmlns:xlink="http://www.w3.org/1999/xlink" preserveAspectRatio="xMinYMin" style="overflow: hidden; position: relative;" viewBox="-4000 -4000 8000 8000" width="8000" height="8000"><g transform="translate(0,0)"><g data-nodeid="b54c345660ebeceae8e528f111943213" transform="scale(-1,1) translate(0, 0)" opacity="1"><path stroke-width="9.19" fill="none" d="M 50.0000 0.0000 C 199.0421 0.0000 156.3684 0.2527 262.8885 0.2527" stroke="#7aa3e5"></path><g data-nodeid="74ed0768e234edb652a100b66a8d0b6d" transform="scale(1, 1) translate(266.6384677639324,0.2527329603277799)"><path stroke-width="8.4529" fill="none" d="M 4.5000 0.0000 C 47.5780 0.0000 35.1706 0.2782 66.0082 0.2782" stroke="#80a8e4"></path><path d="M -0.1 -4.0764499999999995 0.1 -4.0764499999999995 6.180795018999999 0 0.1 4.0764499999999995 -0.1 4.0764499999999995 -6.180795018999999 0 z" transform="translate(65.90819888098326,0.4282405900534204)" fill="#80a8e4" stroke="none"></path><path d="m 0.2 -4.22645 -0.2 0 6.405720325333333 4.22645 -6.405720325333333 4.22645 5 0 0.2 0 0 -8.4529 z" transform="translate(0,0)" fill="#80a8e4" stroke="none"></path><g data-nodeid="1d92a7069f90f0c605857f359f6ecc83" transform="scale(1,1) translate(69.75819888098326,0.2782405900534204)" opacity="1"><path stroke-width="7.782139000000001" fill="none" d="M 4.5000 0.0000 C 59.6946 0.0000 43.9032 -0.0603 83.3425 -0.0603" stroke="#83abe3"></path><g data-nodeid="2c67e4e6b2630bd963df07fe1c7175c3" transform="scale(1,1) translate(87.09249377059498,-0.06031441731302656)"><path stroke-width="7.171746490000001" fill="none" d="M 4.5000 0.0000 C 24.1250 0.0000 11.3750 -20.0000 30.2500 -20.0000" stroke="#87afe3"></path><path d="M -0.1 -3.4358732450000007 0.1 -3.4358732450000007 5.2095397315339005 0 0.1 3.4358732450000007 -0.1 3.4358732450000007 -5.2095397315339005 0 z" transform="translate(30.15,-19.85)" fill="#87afe3" stroke="none"></path><path d="m 0.2 -3.5858732450000006 -0.2 0 5.434845113408534 3.5858732450000006 -5.434845113408534 3.5858732450000006 5 0 0.2 0 0 -7.171746490000001 z" transform="translate(0,0)" fill="#87afe3" stroke="none"></path></g><g data-nodeid="a1d14e8d6e5b9d35bb85b6c6a4177ac9" transform="scale(1,1) translate(87.09249377059498,-0.06031441731302656)" opacity="1"><path stroke-width="7.171746490000001" fill="none" d="M 4.5000 0.0000 C 23.5243 0.0000 13.6278 12.4907 30.2500 12.4907" stroke="#81abe3"></path><path d="M -0.1 -3.4358732450000007 0.1 -3.4358732450000007 5.2095397315339005 0 0.1 3.4358732450000007 -0.1 3.4358732450000007 -5.2095397315339005 0 z" transform="translate(30.15,12.640748868923593)" fill="#81abe3" stroke="none"></path><path d="m 0.2 -3.5858732450000006 -0.2 0 5.434845113408534 3.5858732450000006 -5.434845113408534 3.5858732450000006 5 0 0.2 0 0 -7.171746490000001 z" transform="translate(0,0)" fill="#81abe3" stroke="none"></path></g><path d="M -0.1 -3.7410695000000005 0.1 -3.7410695000000005 5.67228439729 0 0.1 3.7410695000000005 -0.1 3.7410695000000005 -5.67228439729 0 z" transform="translate(83.24249377059499,0.08968558268697344)" fill="#83abe3" stroke="none"></path><path d="m 0.2 -3.8910695000000004 -0.2 0 5.897408696053334 3.8910695000000004 -5.897408696053334 3.8910695000000004 5 0 0.2 0 0 -7.782139000000001 z" transform="translate(0,0)" fill="#83abe3" stroke="none"></path></g><g data-nodeid="f3ebdcd5e5522bcdae7ed0f54233a53e" transform="scale(1,1) translate(69.75819888098326,0.2782405900534204)" opacity="1"><path stroke-width="7.782139000000001" fill="none" d="M 4.5000 0.0000 C 29.5413 0.0000 12.9275 26.4855 37.2464 26.4855" stroke="#88afe5"></path><path d="M -0.1 -3.7410695000000005 0.1 -3.7410695000000005 5.67228439729 0 0.1 3.7410695000000005 -0.1 3.7410695000000005 -5.67228439729 0 z" transform="translate(37.146356052896344,26.635518802562355)" fill="#88afe5" stroke="none"></path><path d="m 0.2 -3.8910695000000004 -0.2 0 5.897408696053334 3.8910695000000004 -5.897408696053334 3.8910695000000004 5 0 0.2 0 0 -7.782139000000001 z" transform="translate(0,0)" fill="#88afe5" stroke="none"></path></g><g data-nodeid="d3e65e8b74d785c4fe981641e5a28f0b" transform="scale(1,1) translate(69.75819888098326,0.2782405900534204)" opacity="1"><path stroke-width="7.782139000000001" fill="none" d="M 4.5000 0.0000 C 31.6495 0.0000 5.0217 52.8382 37.2464 52.8382" stroke="#88b0e8"></path><path d="M -0.1 -3.7410695000000005 0.1 -3.7410695000000005 5.67228439729 0 0.1 3.7410695000000005 -0.1 3.7410695000000005 -5.67228439729 0 z" transform="translate(37.146356052896344,52.98824692204091)" fill="#88b0e8" stroke="none"></path><path d="m 0.2 -3.8910695000000004 -0.2 0 5.897408696053334 3.8910695000000004 -5.897408696053334 3.8910695000000004 5 0 0.2 0 0 -7.782139000000001 z" transform="translate(0,0)" fill="#88b0e8" stroke="none"></path></g><g data-nodeid="eebc47a8a772efc578d5ce91d5510395" transform="scale(1,1) translate(69.75819888098326,0.2782405900534204)" opacity="1"><path stroke-width="7.782139000000001" fill="none" d="M 4.5000 0.0000 C 33.2358 0.0000 -0.9271 72.6675 37.2464 72.6675" stroke="#76a3e2"></path><path d="M -0.1 -3.7410695000000005 0.1 -3.7410695000000005 5.67228439729 0 0.1 3.7410695000000005 -0.1 3.7410695000000005 -5.67228439729 0 z" transform="translate(37.146356052896344,72.8174907234969)" fill="#76a3e2" stroke="none"></path><path d="m 0.2 -3.8910695000000004 -0.2 0 5.897408696053334 3.8910695000000004 -5.897408696053334 3.8910695000000004 5 0 0.2 0 0 -7.782139000000001 z" transform="translate(0,0)" fill="#76a3e2" stroke="none"></path></g><g data-nodeid="c06c7b8790fc87038c2a2a1cf877fee6" transform="scale(1,1) translate(69.75819888098326,0.2782405900534204)" opacity="1"><path stroke-width="7.782139000000001" fill="none" d="M 4.5000 0.0000 C 73.7944 0.0000 36.3792 -49.3269 97.8546 -49.3269" stroke="#82aae7"></path><path d="M -0.1 -3.7410695000000005 0.1 -3.7410695000000005 5.67228439729 0 0.1 3.7410695000000005 -0.1 3.7410695000000005 -5.67228439729 0 z" transform="translate(97.75457853003704,-49.1769141405791)" fill="#82aae7" stroke="none"></path><path d="m 0.2 -3.8910695000000004 -0.2 0 5.897408696053334 3.8910695000000004 -5.897408696053334 3.8910695000000004 5 0 0.2 0 0 -7.782139000000001 z" transform="translate(0,0)" fill="#82aae7" stroke="none"></path></g><g data-nodeid="fb2a5237bb074709cab34ae14f99d9f7" transform="scale(1,1) translate(69.75819888098326,0.2782405900534204)" opacity="1"><path stroke-width="7.782139000000001" fill="none" d="M 4.5000 0.0000 C 83.9780 0.0000 33.5325 -77.6650 109.1639 -77.6650" stroke="#75a1e2"></path><g data-nodeid="6ff376224489ec2f60d681837ce68c03" transform="scale(1,1) translate(112.91394872453617,-77.664981624217)" opacity="1"><path stroke-width="7.171746490000001" fill="none" d="M 4.5000 0.0000 C 44.3562 0.0000 32.6722 0.8302 61.3425 0.8302" stroke="#7aa5e1" stroke-dasharray="99999"></path><path d="M -0.1 -3.4358732450000007 0.1 -3.4358732450000007 5.2095397315339005 0 0.1 3.4358732450000007 -0.1 3.4358732450000007 -5.2095397315339005 0 z" transform="translate(61.242511310764165,0.9802496229745629)" fill="#7aa5e1" stroke="none"></path><path d="m 0.2 -3.5858732450000006 -0.2 0 5.434845113408534 3.5858732450000006 -5.434845113408534 3.5858732450000006 5 0 0.2 0 0 -7.171746490000001 z" transform="translate(0,0)" fill="#7aa5e1" stroke="none"></path></g><g data-nodeid="1d6fd9861950b4db8d570a8b8ee52993" transform="scale(1,1) translate(112.91394872453617,-77.664981624217)" opacity="1"><path stroke-width="7.171746490000001" fill="none" d="M 4.5000 0.0000 C 22.2231 0.0000 9.2956 -22.0185 27.3023 -22.0185" stroke="#6e9ee1" stroke-dasharray="99999"></path><path d="M -0.1 -3.4358732450000007 0.1 -3.4358732450000007 5.2095397315339005 0 0.1 3.4358732450000007 -0.1 3.4358732450000007 -5.2095397315339005 0 z" transform="translate(27.202276768808325,-21.86850226215278)" fill="#6e9ee1" stroke="none"></path><path d="m 0.2 -3.5858732450000006 -0.2 0 5.434845113408534 3.5858732450000006 -5.434845113408534 3.5858732450000006 5 0 0.2 0 0 -7.171746490000001 z" transform="translate(0,0)" fill="#6e9ee1" stroke="none"></path></g><path d="M -0.1 -3.7410695000000005 0.1 -3.7410695000000005 5.67228439729 0 0.1 3.7410695000000005 -0.1 3.7410695000000005 -5.67228439729 0 z" transform="translate(109.06394872453617,-77.514981624217)" fill="#75a1e2" stroke="none"></path><path d="m 0.2 -3.8910695000000004 -0.2 0 5.897408696053334 3.8910695000000004 -5.897408696053334 3.8910695000000004 5 0 0.2 0 0 -7.782139000000001 z" transform="translate(0,0)" fill="#75a1e2" stroke="none"></path></g></g><g data-nodeid="05b40e085d81d04f2e8d0f4332c881a7" transform="scale(1, 1) translate(266.6384677639324,0.2527329603277799)" opacity="1"><path stroke-width="8.4529" fill="none" d="M 4.5000 0.0000 C 64.1189 0.0000 9.4658 105.3334 77.6317 105.3334" stroke="#7ea7e5"></path><g data-nodeid="141f82d5f88f9b57adb15ad579e223dc" transform="scale(1,1) translate(81.38169360262668,105.33337285964205)"><path stroke-width="7.782139000000001" fill="none" d="M 4.5000 0.0000 C 61.7250 0.0000 45.3750 0.0000 86.2500 0.0000" stroke="#84ade7"></path><path d="M -0.1 -3.7410695000000005 0.1 -3.7410695000000005 5.67228439729 0 0.1 3.7410695000000005 -0.1 3.7410695000000005 -5.67228439729 0 z" transform="translate(86.15,0.15)" fill="#84ade7" stroke="none"></path><path d="m 0.2 -3.8910695000000004 -0.2 0 5.897408696053334 3.8910695000000004 -5.897408696053334 3.8910695000000004 5 0 0.2 0 0 -7.782139000000001 z" transform="translate(0,0)" fill="#84ade7" stroke="none"></path></g><g data-nodeid="ce2912b0d34a3e48afcb7b162f3525f9" transform="scale(1,1) translate(81.38169360262668,105.33337285964205)"><path stroke-width="7.782139000000001" fill="none" d="M 4.5000 0.0000 C 36.5368 0.0000 20.1542 20.2418 47.9535 20.2418" stroke="#7fa9e4"></path><path d="M -0.1 -3.7410695000000005 0.1 -3.7410695000000005 5.67228439729 0 0.1 3.7410695000000005 -0.1 3.7410695000000005 -5.67228439729 0 z" transform="translate(47.85353967442827,20.391801119016755)" fill="#7fa9e4" stroke="none"></path><path d="m 0.2 -3.8910695000000004 -0.2 0 5.897408696053334 3.8910695000000004 -5.897408696053334 3.8910695000000004 5 0 0.2 0 0 -7.782139000000001 z" transform="translate(0,0)" fill="#7fa9e4" stroke="none"></path></g><path d="M -0.1 -4.0764499999999995 0.1 -4.0764499999999995 6.180795018999999 0 0.1 4.0764499999999995 -0.1 4.0764499999999995 -6.180795018999999 0 z" transform="translate(77.53169360262669,105.48337285964206)" fill="#7ea7e5" stroke="none"></path><path d="m 0.2 -4.22645 -0.2 0 6.405720325333333 4.22645 -6.405720325333333 4.22645 5 0 0.2 0 0 -8.4529 z" transform="translate(0,0)" fill="#7ea7e5" stroke="none"></path></g><path d="M -0.1 -4.444999999999999 0.1 -4.444999999999999 6.739597899999999 0 0.1 4.444999999999999 -0.1 4.444999999999999 -6.739597899999999 0 z" transform="translate(262.7884677639324,0.40273296032777994)" fill="#7aa3e5" stroke="none"></path><path d="m 0.2 -4.595 -0.2 0 6.964304533333332 4.595 -6.964304533333332 4.595 5 0 0.2 0 0 -9.19 z" transform="translate(45.5,0)" fill="#7aa3e5" stroke="none"></path></g><g data-nodeid="80ec1979d89fd01b0ddee51b4993b56b" transform="scale(1,1) translate(0, 0)"><path stroke-width="9.19" fill="none" d="M 0.0000 24.5000 C 0.0000 69.2367 18.4938 68.2382 63.2305 68.2382" stroke="#67d7c4"></path><path d="M -0.1 -4.444999999999999 0.1 -4.444999999999999 6.739597899999999 0 0.1 4.444999999999999 -0.1 4.444999999999999 -6.739597899999999 0 z" transform="translate(63.13047965430696,68.3881571719131)" fill="#67d7c4" stroke="none"></path><path d="m -4.595 0.2 0 -0.2 4.595 6.964304533333332 4.595 -6.964304533333332 0 5 0 0.2 -9.19 0 z" transform="translate(0,20)" fill="#67d7c4" stroke="none"></path><g data-nodeid="87ad1debd136d1c1c8638d2b04c04e19" transform="scale(1, 1) translate(66.98047965430696,68.23815717191309)" opacity="1"><path stroke-width="8.4529" fill="none" d="M 4.5000 0.0000 C 53.6695 0.0000 13.6519 78.5708 -24.3386 78.5708" stroke="#5dd5bf"></path><g data-nodeid="9726d9b0af5b0d464e339feb5311931c" transform="scale(-1,1) translate(28.08856545720458,78.57077444188698)"><path stroke-width="7.782139000000001" fill="none" d="M 4.5000 0.0000 C 40.0417 0.0000 29.6188 0.7509 55.1881 0.7509" stroke="#54d2b9"></path><path d="M -0.1 -3.7410695000000005 0.1 -3.7410695000000005 5.67228439729 0 0.1 3.7410695000000005 -0.1 3.7410695000000005 -5.67228439729 0 z" transform="translate(55.08805289923767,0.9009109867758923)" fill="#54d2b9" stroke="none"></path><path d="m 0.2 -3.8910695000000004 -0.2 0 5.897408696053334 3.8910695000000004 -5.897408696053334 3.8910695000000004 5 0 0.2 0 0 -7.782139000000001 z" transform="translate(0,0)" fill="#54d2b9" stroke="none"></path></g><path d="M -0.1 -4.0764499999999995 0.1 -4.0764499999999995 6.180795018999999 0 0.1 4.0764499999999995 -0.1 4.0764499999999995 -6.180795018999999 0 z" transform="translate(-24.23856545720458,78.72077444188699)" fill="#5dd5bf" stroke="none"></path><path d="m 0.2 -4.22645 -0.2 0 6.405720325333333 4.22645 -6.405720325333333 4.22645 5 0 0.2 0 0 -8.4529 z" transform="translate(0,0)" fill="#5dd5bf" stroke="none"></path></g><g data-nodeid="2fa0b16f6225660f2e2d542d715fdace" transform="scale(1, 1) translate(66.98047965430696,68.23815717191309)"><path stroke-width="8.4529" fill="none" d="M 4.5000 0.0000 C 44.4009 0.0000 32.9026 0.2746 61.4699 0.2746" stroke="#6edac6"></path><path d="M -0.1 -4.0764499999999995 0.1 -4.0764499999999995 6.180795018999999 0 0.1 4.0764499999999995 -0.1 4.0764499999999995 -6.180795018999999 0 z" transform="translate(61.369937436394714,0.42459664294971733)" fill="#6edac6" stroke="none"></path><path d="m 0.2 -4.22645 -0.2 0 6.405720325333333 4.22645 -6.405720325333333 4.22645 5 0 0.2 0 0 -8.4529 z" transform="translate(0,0)" fill="#6edac6" stroke="none"></path><g data-nodeid="8070bd3e88890339b6994ba374a06c6e" transform="scale(1,1) translate(65.21993743639472,0.2745966429497173)" opacity="1"><path stroke-width="7.782139000000001" fill="none" d="M 4.5000 0.0000 C 40.4264 0.0000 -6.1647 101.7139 44.1990 101.7139" stroke="#67dbc4"></path><g data-nodeid="d3be31715733256d429ac2c4ee900095" transform="scale(1,1) translate(47.948984740548696,101.71394245043933)" opacity="1"><path stroke-width="7.171746490000001" fill="none" d="M 4.5000 0.0000 C 26.6793 0.0000 20.2382 -0.2917 36.1513 -0.2917" stroke="#65dbc2"></path><path d="M -0.1 -3.4358732450000007 0.1 -3.4358732450000007 5.2095397315339005 0 0.1 3.4358732450000007 -0.1 3.4358732450000007 -5.2095397315339005 0 z" transform="translate(36.05134076206465,-0.14171551224979453)" fill="#65dbc2" stroke="none"></path><path d="m 0.2 -3.5858732450000006 -0.2 0 5.434845113408534 3.5858732450000006 -5.434845113408534 3.5858732450000006 5 0 0.2 0 0 -7.171746490000001 z" transform="translate(0,0)" fill="#65dbc2" stroke="none"></path></g><path d="M -0.1 -3.7410695000000005 0.1 -3.7410695000000005 5.67228439729 0 0.1 3.7410695000000005 -0.1 3.7410695000000005 -5.67228439729 0 z" transform="translate(44.098984740548694,101.86394245043934)" fill="#67dbc4" stroke="none"></path><path d="m 0.2 -3.8910695000000004 -0.2 0 5.897408696053334 3.8910695000000004 -5.897408696053334 3.8910695000000004 5 0 0.2 0 0 -7.782139000000001 z" transform="translate(0,0)" fill="#67dbc4" stroke="none"></path></g><g data-nodeid="88c0af0c5822b6ef4beffaba2bda497e" transform="scale(1,1) translate(65.21993743639472,0.2745966429497173)"><path stroke-width="7.782139000000001" fill="none" d="M 4.5000 0.0000 C 37.9237 0.0000 3.2206 70.4297 44.1990 70.4297" stroke="#72dcc7"></path><path d="M -0.1 -3.7410695000000005 0.1 -3.7410695000000005 5.67228439729 0 0.1 3.7410695000000005 -0.1 3.7410695000000005 -5.67228439729 0 z" transform="translate(44.098984740548694,70.57968116321805)" fill="#72dcc7" stroke="none"></path><path d="m 0.2 -3.8910695000000004 -0.2 0 5.897408696053334 3.8910695000000004 -5.897408696053334 3.8910695000000004 5 0 0.2 0 0 -7.782139000000001 z" transform="translate(0,0)" fill="#72dcc7" stroke="none"></path></g><g data-nodeid="6ef2969fa8db71e81c08a87d4041ad17" transform="scale(1,1) translate(65.21993743639472,0.2745966429497173)"><path stroke-width="7.782139000000001" fill="none" d="M 4.5000 0.0000 C 35.9952 0.0000 10.4522 46.3244 44.1990 46.3244" stroke="#76dcc7"></path><path d="M -0.1 -3.7410695000000005 0.1 -3.7410695000000005 5.67228439729 0 0.1 3.7410695000000005 -0.1 3.7410695000000005 -5.67228439729 0 z" transform="translate(44.098984740548694,46.47444023393661)" fill="#76dcc7" stroke="none"></path><path d="m 0.2 -3.8910695000000004 -0.2 0 5.897408696053334 3.8910695000000004 -5.897408696053334 3.8910695000000004 5 0 0.2 0 0 -7.782139000000001 z" transform="translate(0,0)" fill="#76dcc7" stroke="none"></path></g><g data-nodeid="f6222929e799386f01fadd7c013e2c67" transform="scale(1,1) translate(65.21993743639472,0.2745966429497173)"><path stroke-width="7.782139000000001" fill="none" d="M 4.5000 0.0000 C 33.8459 0.0000 18.5121 19.4581 44.1990 19.4581" stroke="#75dbc6"></path><path d="M -0.1 -3.7410695000000005 0.1 -3.7410695000000005 5.67228439729 0 0.1 3.7410695000000005 -0.1 3.7410695000000005 -5.67228439729 0 z" transform="translate(44.098984740548694,19.608094608307816)" fill="#75dbc6" stroke="none"></path><path d="m 0.2 -3.8910695000000004 -0.2 0 5.897408696053334 3.8910695000000004 -5.897408696053334 3.8910695000000004 5 0 0.2 0 0 -7.782139000000001 z" transform="translate(0,0)" fill="#75dbc6" stroke="none"></path></g><g data-nodeid="3b172eb42d2bfcc1e2e779cb9321cea3" transform="scale(1,1) translate(65.21993743639472,0.2745966429497173)"><path stroke-width="7.782139000000001" fill="none" d="M 4.5000 0.0000 C 94.3772 0.0000 68.4181 -0.7837 132.8065 -0.7837" stroke="#74dcc7"></path><path d="M -0.1 -3.7410695000000005 0.1 -3.7410695000000005 5.67228439729 0 0.1 3.7410695000000005 -0.1 3.7410695000000005 -5.67228439729 0 z" transform="translate(132.70648118010686,-0.6337065107089245)" fill="#74dcc7" stroke="none"></path><path d="m 0.2 -3.8910695000000004 -0.2 0 5.897408696053334 3.8910695000000004 -5.897408696053334 3.8910695000000004 5 0 0.2 0 0 -7.782139000000001 z" transform="translate(0,0)" fill="#74dcc7" stroke="none"></path><g data-nodeid="f4e4139cd71f4a42816db38273720d00" transform="scale(1,1) translate(136.55648118010686,-0.7837065107089245)"><path stroke-width="7.171746490000001" fill="none" d="M 4.5000 0.0000 C 31.5714 0.0000 23.8367 0.0000 43.1735 0.0000" stroke="#6adac1"></path><path d="M -0.1 -3.4358732450000007 0.1 -3.4358732450000007 5.2095397315339005 0 0.1 3.4358732450000007 -0.1 3.4358732450000007 -5.2095397315339005 0 z" transform="translate(43.073477110823,0.15)" fill="#6adac1" stroke="none"></path><path d="m 0.2 -3.5858732450000006 -0.2 0 5.434845113408534 3.5858732450000006 -5.434845113408534 3.5858732450000006 5 0 0.2 0 0 -7.171746490000001 z" transform="translate(0,0)" fill="#6adac1" stroke="none"></path><g data-nodeid="6e39c9ab7ecf7237ae7f7296031c8751" transform="scale(1,1) translate(46.923477110823,0)" opacity="1"><path stroke-width="6.616289305900001" fill="none" d="M 4.5000 0.0000 C 48.6993 0.0000 14.0459 -43.6322 -2.5875 -43.6322" stroke="#74dcc3"></path><path d="M -0.1 -3.158144652950001 0.1 -3.158144652950001 4.78844208569585 0 0.1 3.158144652950001 -0.1 3.158144652950001 -4.78844208569585 0 z" transform="translate(-2.4875033466131184,-43.48217586920179)" fill="#74dcc3" stroke="none"></path><path d="m 0.2 -3.3081446529500007 -0.2 0 5.013912253201766 3.3081446529500007 -5.013912253201766 3.3081446529500007 5 0 0.2 0 0 -6.616289305900001 z" transform="translate(0,0)" fill="#74dcc3" stroke="none"></path></g></g></g><g data-nodeid="363383a6e0c9764d0fab6707892bda9c" transform="scale(1,1) translate(65.21993743639472,0.2745966429497173)"><path stroke-width="7.782139000000001" fill="none" d="M 4.5000 0.0000 C 35.4131 0.0000 12.6353 -39.0474 44.1990 -39.0474" stroke="#6edcc6"></path><path d="M -0.1 -3.7410695000000005 0.1 -3.7410695000000005 5.67228439729 0 0.1 3.7410695000000005 -0.1 3.7410695000000005 -5.67228439729 0 z" transform="translate(44.098984740548694,-38.89737131234768)" fill="#6edcc6" stroke="none"></path><path d="m 0.2 -3.8910695000000004 -0.2 0 5.897408696053334 3.8910695000000004 -5.897408696053334 3.8910695000000004 5 0 0.2 0 0 -7.782139000000001 z" transform="translate(0,0)" fill="#6edcc6" stroke="none"></path></g><g data-nodeid="c1e41ecad10c5a29c3c83cc2416f08bb" transform="scale(1,1) translate(65.21993743639472,0.2745966429497173)"><path stroke-width="7.782139000000001" fill="none" d="M 4.5000 0.0000 C 37.6944 0.0000 4.0804 -67.5637 44.1990 -67.5637" stroke="#6edac4"></path><path d="M -0.1 -3.7410695000000005 0.1 -3.7410695000000005 5.67228439729 0 0.1 3.7410695000000005 -0.1 3.7410695000000005 -5.67228439729 0 z" transform="translate(44.098984740548694,-67.41366713721845)" fill="#6edac4" stroke="none"></path><path d="m 0.2 -3.8910695000000004 -0.2 0 5.897408696053334 3.8910695000000004 -5.897408696053334 3.8910695000000004 5 0 0.2 0 0 -7.782139000000001 z" transform="translate(0,0)" fill="#6edac4" stroke="none"></path></g></g></g><g data-nodeid="1683310cc356cd7e7ff45a71d773e0ca" transform="scale(-1,1) translate(0, 0)"><path stroke-width="9.19" fill="none" d="M 50.0000 0.0000 C 90.7084 0.0000 60.2987 52.5806 102.1457 52.5806" stroke="#efa670"></path><path d="M -0.1 -4.444999999999999 0.1 -4.444999999999999 6.739597899999999 0 0.1 4.444999999999999 -0.1 4.444999999999999 -6.739597899999999 0 z" transform="translate(102.0456554439388,52.73057964497229)" fill="#efa670" stroke="none"></path><path d="m 0.2 -4.595 -0.2 0 6.964304533333332 4.595 -6.964304533333332 4.595 5 0 0.2 0 0 -9.19 z" transform="translate(45.5,0)" fill="#efa670" stroke="none"></path><g data-nodeid="120db3cd345e0c166cd04cee862fb320" transform="scale(1, 1) translate(105.8956554439388,52.58057964497229)" opacity="1"><path stroke-width="8.4529" fill="none" d="M 4.5000 0.0000 C 55.6293 0.0000 15.8497 95.7087 -30.2259 95.7087" stroke="#ef9d64"></path><path d="M -0.1 -4.0764499999999995 0.1 -4.0764499999999995 6.180795018999999 0 0.1 4.0764499999999995 -0.1 4.0764499999999995 -6.180795018999999 0 z" transform="translate(-30.125913783058103,95.85870011282387)" fill="#ef9d64" stroke="none"></path><path d="m 0.2 -4.22645 -0.2 0 6.405720325333333 4.22645 -6.405720325333333 4.22645 5 0 0.2 0 0 -8.4529 z" transform="translate(0,0)" fill="#ef9d64" stroke="none"></path></g><g data-nodeid="4e2745207dce4ac0ef8a326053e41dd4" transform="scale(1, 1) translate(105.8956554439388,52.58057964497229)" opacity="1"><path stroke-width="8.4529" fill="none" d="M 4.5000 0.0000 C 66.2758 0.0000 38.5650 -28.1694 89.5317 -28.1694" stroke="#f2a875"></path><path d="M -0.1 -4.0764499999999995 0.1 -4.0764499999999995 6.180795018999999 0 0.1 4.0764499999999995 -0.1 4.0764499999999995 -6.180795018999999 0 z" transform="translate(89.43174733717508,-28.019443156289878)" fill="#f2a875" stroke="none"></path><path d="m 0.2 -4.22645 -0.2 0 6.405720325333333 4.22645 -6.405720325333333 4.22645 5 0 0.2 0 0 -8.4529 z" transform="translate(0,0)" fill="#f2a875" stroke="none"></path></g></g><g data-nodeid="238c6923f24599f3b8fc75079cc29fb5" transform="scale(1,1) translate(0, 0)" opacity="1"><path stroke-width="9.19" fill="none" d="M 50.0000 0.0000 C 99.2164 0.0000 59.2002 -72.6721 112.0037 -72.6721" stroke="#ebd95f"></path><g data-nodeid="7e4b7c035d2a71f712e5d012f8577f2f" transform="scale(1, 1) translate(115.75372610228226,-72.67208554441197)" opacity="1"><path stroke-width="8.4529" fill="none" d="M 4.5000 0.0000 C 111.7904 0.0000 80.6768 -1.2858 157.6250 -1.2858" stroke="#ead766"></path><g data-nodeid="f2ecb08f180e5047e35badcb0477d18e" transform="scale(1,1) translate(161.37502954944046,-1.285805452009356)" opacity="1"><path stroke-width="7.782139000000001" fill="none" d="M 4.5000 0.0000 C 24.0669 0.0000 18.1798 0.8302 32.3578 0.8302" stroke="#ebd76d" stroke-dasharray="99999"></path><path d="M -0.1 -3.7410695000000005 0.1 -3.7410695000000005 5.67228439729 0 0.1 3.7410695000000005 -0.1 3.7410695000000005 -5.67228439729 0 z" transform="translate(32.257783555266734,0.9802496229745202)" fill="#ebd76d" stroke="none"></path><path d="m 0.2 -3.8910695000000004 -0.2 0 5.897408696053334 3.8910695000000004 -5.897408696053334 3.8910695000000004 5 0 0.2 0 0 -7.782139000000001 z" transform="translate(0,0)" fill="#ebd76d" stroke="none"></path></g><path d="M -0.1 -4.0764499999999995 0.1 -4.0764499999999995 6.180795018999999 0 0.1 4.0764499999999995 -0.1 4.0764499999999995 -6.180795018999999 0 z" transform="translate(157.52502954944046,-1.1358054520093561)" fill="#ead766" stroke="none"></path><path d="m 0.2 -4.22645 -0.2 0 6.405720325333333 4.22645 -6.405720325333333 4.22645 5 0 0.2 0 0 -8.4529 z" transform="translate(0,0)" fill="#ead766" stroke="none"></path></g><g data-nodeid="7b22f71493c1c4ec545472aeb26d2c89" transform="scale(1, 1) translate(115.75372610228226,-72.67208554441197)" opacity="1"><path stroke-width="8.4529" fill="none" d="M 4.5000 0.0000 C 45.7829 0.0000 29.8340 -11.6305 62.1463 -11.6305" stroke="#e9d55f" stroke-dasharray="99999"></path><path d="M -0.1 -4.0764499999999995 0.1 -4.0764499999999995 6.180795018999999 0 0.1 4.0764499999999995 -0.1 4.0764499999999995 -6.180795018999999 0 z" transform="translate(62.04632290736944,-11.480545645388508)" fill="#e9d55f" stroke="none"></path><path d="m 0.2 -4.22645 -0.2 0 6.405720325333333 4.22645 -6.405720325333333 4.22645 5 0 0.2 0 0 -8.4529 z" transform="translate(0,0)" fill="#e9d55f" stroke="none"></path></g><g data-nodeid="b77d42bc4c8eef8c0ebd0be0e5ecc9a7" transform="scale(1, 1) translate(115.75372610228226,-72.67208554441197)" opacity="1"><path stroke-width="8.4529" fill="none" d="M 4.5000 0.0000 C 46.4676 0.0000 27.2664 20.1891 62.1463 20.1891" stroke="#e9d459" stroke-dasharray="99999"></path><path d="M -0.1 -4.0764499999999995 0.1 -4.0764499999999995 6.180795018999999 0 0.1 4.0764499999999995 -0.1 4.0764499999999995 -6.180795018999999 0 z" transform="translate(62.04632290736944,20.33906667413344)" fill="#e9d459" stroke="none"></path><path d="m 0.2 -4.22645 -0.2 0 6.405720325333333 4.22645 -6.405720325333333 4.22645 5 0 0.2 0 0 -8.4529 z" transform="translate(0,0)" fill="#e9d459" stroke="none"></path></g><g data-nodeid="74720bc60e08023ac0058e64f9d24adf" transform="scale(1, 1) translate(115.75372610228226,-72.67208554441197)" opacity="1"><path stroke-width="8.4529" fill="none" d="M 4.5000 0.0000 C 47.9650 0.0000 21.6511 -38.9069 62.1463 -38.9069" stroke="#ecd75a" stroke-dasharray="99999"></path><path d="M -0.1 -4.0764499999999995 0.1 -4.0764499999999995 6.180795018999999 0 0.1 4.0764499999999995 -0.1 4.0764499999999995 -6.180795018999999 0 z" transform="translate(62.04632290736944,-38.75694547530109)" fill="#ecd75a" stroke="none"></path><path d="m 0.2 -4.22645 -0.2 0 6.405720325333333 4.22645 -6.405720325333333 4.22645 5 0 0.2 0 0 -8.4529 z" transform="translate(0,0)" fill="#ecd75a" stroke="none"></path></g><path d="M -0.1 -4.444999999999999 0.1 -4.444999999999999 6.739597899999999 0 0.1 4.444999999999999 -0.1 4.444999999999999 -6.739597899999999 0 z" transform="translate(111.90372610228226,-72.52208554441196)" fill="#ebd95f" stroke="none"></path><path d="m 0.2 -4.595 -0.2 0 6.964304533333332 4.595 -6.964304533333332 4.595 5 0 0.2 0 0 -9.19 z" transform="translate(45.5,0)" fill="#ebd95f" stroke="none"></path></g><g data-nodeid="d164deec921fe0f5885011aa1346318a" transform="scale(-1,1) translate(0, 0)" opacity="1"><path stroke-width="9.19" fill="none" d="M 0.0000 -24.5000 C 0.0000 -56.3765 9.1650 -62.3525 41.0415 -62.3525" stroke="#efa670" stroke-dasharray="99999"></path><g data-nodeid="58e9008f867c3418bf62736c0e773abe" transform="scale(1, 1) translate(44.79147288791967,-62.35245023847501)" opacity="1"><path stroke-width="8.4529" fill="none" d="M 4.5000 0.0000 C 65.8515 0.0000 23.2004 -70.3419 84.1060 -70.3419" stroke="#f0aa79" stroke-dasharray="99999"></path><path d="M -0.1 -4.0764499999999995 0.1 -4.0764499999999995 6.180795018999999 0 0.1 4.0764499999999995 -0.1 4.0764499999999995 -6.180795018999999 0 z" transform="translate(84.00599359452565,-70.19191729242553)" fill="#f0aa79" stroke="none"></path><path d="m 0.2 -4.22645 -0.2 0 6.405720325333333 4.22645 -6.405720325333333 4.22645 5 0 0.2 0 0 -8.4529 z" transform="translate(0,0)" fill="#f0aa79" stroke="none"></path></g><g data-nodeid="8d472da5235e9727a32d8c1e58af52be" transform="scale(1, 1) translate(44.79147288791967,-62.35245023847501)" opacity="1"><path stroke-width="8.4529" fill="none" d="M 4.5000 0.0000 C 64.3131 0.0000 28.9696 -51.1114 84.1060 -51.1114" stroke="#ec9e69" stroke-dasharray="99999"></path><path d="M -0.1 -4.0764499999999995 0.1 -4.0764499999999995 6.180795018999999 0 0.1 4.0764499999999995 -0.1 4.0764499999999995 -6.180795018999999 0 z" transform="translate(84.00599359452565,-50.96142784122145)" fill="#ec9e69" stroke="none"></path><path d="m 0.2 -4.22645 -0.2 0 6.405720325333333 4.22645 -6.405720325333333 4.22645 5 0 0.2 0 0 -8.4529 z" transform="translate(0,0)" fill="#ec9e69" stroke="none"></path></g><g data-nodeid="8b4451293dcad633d4f1abc849d0f3ee" transform="scale(1, 1) translate(44.79147288791967,-62.35245023847501)" opacity="1"><path stroke-width="8.4529" fill="none" d="M 4.5000 0.0000 C 67.4330 0.0000 17.2699 -90.1102 84.1060 -90.1102" stroke="#eea471" stroke-dasharray="99999"></path><path d="M -0.1 -4.0764499999999995 0.1 -4.0764499999999995 6.180795018999999 0 0.1 4.0764499999999995 -0.1 4.0764499999999995 -6.180795018999999 0 z" transform="translate(84.00599359452565,-89.96021477391619)" fill="#eea471" stroke="none"></path><path d="m 0.2 -4.22645 -0.2 0 6.405720325333333 4.22645 -6.405720325333333 4.22645 5 0 0.2 0 0 -8.4529 z" transform="translate(0,0)" fill="#eea471" stroke="none"></path></g><g data-nodeid="33c4f542f18eda4b6b1ab5b335414f55" transform="scale(1, 1) translate(44.79147288791967,-62.35245023847501)" opacity="1"><path stroke-width="8.4529" fill="none" d="M 4.5000 0.0000 C 111.2527 0.0000 80.7469 -0.0139 157.0022 -0.0139" stroke="#f1ab7a" stroke-dasharray="99999"></path><g data-nodeid="b249e69089e627f836ec6b144e41c7be" transform="scale(1,1) translate(160.75221138065376,-0.013878295987254319)" opacity="1"><path stroke-width="7.782139000000001" fill="none" d="M 4.5000 0.0000 C 39.8343 0.0000 22.4645 20.3681 52.6498 20.3681" stroke="#f0a97b" stroke-dasharray="99999"></path><path d="M -0.1 -3.7410695000000005 0.1 -3.7410695000000005 5.67228439729 0 0.1 3.7410695000000005 -0.1 3.7410695000000005 -5.67228439729 0 z" transform="translate(52.54983986314112,20.518060852006364)" fill="#f0a97b" stroke="none"></path><path d="m 0.2 -3.8910695000000004 -0.2 0 5.897408696053334 3.8910695000000004 -5.897408696053334 3.8910695000000004 5 0 0.2 0 0 -7.782139000000001 z" transform="translate(0,0)" fill="#f0a97b" stroke="none"></path></g><path d="M -0.1 -4.0764499999999995 0.1 -4.0764499999999995 6.180795018999999 0 0.1 4.0764499999999995 -0.1 4.0764499999999995 -6.180795018999999 0 z" transform="translate(156.90221138065377,0.13612170401274568)" fill="#f1ab7a" stroke="none"></path><path d="m 0.2 -4.22645 -0.2 0 6.405720325333333 4.22645 -6.405720325333333 4.22645 5 0 0.2 0 0 -8.4529 z" transform="translate(0,0)" fill="#f1ab7a" stroke="none"></path><g data-nodeid="b133c46b9fffc22eb1afd202d3a86c11" transform="scale(1,1) translate(160.75221138065376,-0.013878295987254319)" opacity="1"><path stroke-width="7.782139000000001" fill="none" d="M 4.5000 0.0000 C 38.2209 0.0000 28.5149 -0.1999 52.6498 -0.1999" stroke="#f2af83" stroke-dasharray="99999"></path><path d="M -0.1 -3.7410695000000005 0.1 -3.7410695000000005 5.67228439729 0 0.1 3.7410695000000005 -0.1 3.7410695000000005 -5.67228439729 0 z" transform="translate(52.54983986314112,-0.049919931570605064)" fill="#f2af83" stroke="none"></path><path d="m 0.2 -3.8910695000000004 -0.2 0 5.897408696053334 3.8910695000000004 -5.897408696053334 3.8910695000000004 5 0 0.2 0 0 -7.782139000000001 z" transform="translate(0,0)" fill="#f2af83" stroke="none"></path></g><g data-nodeid="4aac6b15c59e32e284e4564e42760ec6" transform="scale(1,1) translate(160.75221138065376,-0.013878295987254319)" opacity="1"><path stroke-width="7.782139000000001" fill="none" d="M 4.5000 0.0000 C 39.8587 0.0000 22.3733 -20.6722 52.6498 -20.6722" stroke="#f0a26f" stroke-dasharray="99999"></path><path d="M -0.1 -3.7410695000000005 0.1 -3.7410695000000005 5.67228439729 0 0.1 3.7410695000000005 -0.1 3.7410695000000005 -5.67228439729 0 z" transform="translate(52.54983986314112,-20.522163339596)" fill="#f0a26f" stroke="none"></path><path d="m 0.2 -3.8910695000000004 -0.2 0 5.897408696053334 3.8910695000000004 -5.897408696053334 3.8910695000000004 5 0 0.2 0 0 -7.782139000000001 z" transform="translate(0,0)" fill="#f0a26f" stroke="none"></path></g><g data-nodeid="335bf9a12765bcb884780fb0516b7f7b" transform="scale(1,1) translate(160.75221138065376,-0.013878295987254319)" opacity="1"><path stroke-width="7.782139000000001" fill="none" d="M 4.5000 0.0000 C 53.6270 0.0000 24.3421 -42.6961 69.8019 -42.6961" stroke="#efa270" stroke-dasharray="99999"></path><g data-nodeid="5769fd77e5f0ba3bf2364852cc0e4fae" transform="scale(1,1) translate(73.55189110693598,-42.696097683483956)" opacity="1"><path stroke-width="7.171746490000001" fill="none" d="M 4.5000 0.0000 C 23.1968 0.0000 17.8549 -0.0000 31.2098 -0.0000" stroke="#f19f6e" stroke-dasharray="99999"></path><path d="M -0.1 -3.4358732450000007 0.1 -3.4358732450000007 5.2095397315339005 0 0.1 3.4358732450000007 -0.1 3.4358732450000007 -5.2095397315339005 0 z" transform="translate(31.10977580839758,0.14999999999997157)" fill="#f19f6e" stroke="none"></path><path d="m 0.2 -3.5858732450000006 -0.2 0 5.434845113408534 3.5858732450000006 -5.434845113408534 3.5858732450000006 5 0 0.2 0 0 -7.171746490000001 z" transform="translate(0,0)" fill="#f19f6e" stroke="none"></path></g><path d="M -0.1 -3.7410695000000005 0.1 -3.7410695000000005 5.67228439729 0 0.1 3.7410695000000005 -0.1 3.7410695000000005 -5.67228439729 0 z" transform="translate(69.70189110693599,-42.54609768348396)" fill="#efa270" stroke="none"></path><path d="m 0.2 -3.8910695000000004 -0.2 0 5.897408696053334 3.8910695000000004 -5.897408696053334 3.8910695000000004 5 0 0.2 0 0 -7.782139000000001 z" transform="translate(0,0)" fill="#efa270" stroke="none"></path></g></g><path d="M -0.1 -4.444999999999999 0.1 -4.444999999999999 6.739597899999999 0 0.1 4.444999999999999 -0.1 4.444999999999999 -6.739597899999999 0 z" transform="translate(40.941472887919666,-62.20245023847501)" fill="#efa670" stroke="none"></path><path d="m -4.595 -0.2 0 0.2 4.595 -6.964304533333332 4.595 6.964304533333332 0 -5 0 -0.2 -9.19 0 z" transform="translate(0,-20)" fill="#efa670" stroke="none"></path><g data-nodeid="c3259a5080c0a5eb98db760d7f50dfb1" transform="scale(1, 1) translate(44.79147288791967,-62.35245023847501)" opacity="1"><path stroke-width="8.4529" fill="none" d="M 4.5000 0.0000 C 69.3864 0.0000 9.9446 -114.5281 84.1060 -114.5281" stroke="#f0aa79" stroke-dasharray="99999"></path><g data-nodeid="6ef0b5bfd40d12d29067627256d8affc" transform="scale(1,1) translate(87.85599359452564,-114.52808334265879)" opacity="1"><path stroke-width="7.782139000000001" fill="none" d="M 4.5000 0.0000 C 77.4167 0.0000 56.5834 -0.0000 108.6667 -0.0000" stroke="#f0ad81" stroke-dasharray="99999"></path><g data-nodeid="7ea24cd7542f939b8b0a7adc77a21c29" transform="scale(1,1) translate(112.41673982031239,-2.842170943040401e-14)" opacity="1"><path stroke-width="7.171746490000001" fill="none" d="M 4.5000 0.0000 C 25.8104 0.0000 19.4252 -0.8302 34.8485 -0.8302" stroke="#f0b18b" stroke-dasharray="99999"></path><path d="M -0.1 -3.4358732450000007 0.1 -3.4358732450000007 5.2095397315339005 0 0.1 3.4358732450000007 -0.1 3.4358732450000007 -5.2095397315339005 0 z" transform="translate(34.74853242419035,-0.6802496229745202)" fill="#f0b18b" stroke="none"></path><path d="m 0.2 -3.5858732450000006 -0.2 0 5.434845113408534 3.5858732450000006 -5.434845113408534 3.5858732450000006 5 0 0.2 0 0 -7.171746490000001 z" transform="translate(0,0)" fill="#f0b18b" stroke="none"></path></g><g data-nodeid="3b515e8ced78611dbfac381781017929" transform="scale(1,1) translate(112.41673982031239,-2.842170943040401e-14)"><path stroke-width="7.171746490000001" fill="none" d="M 4.5000 0.0000 C 27.9704 0.0000 11.3252 -27.8302 34.8485 -27.8302" stroke="#f0b089" stroke-dasharray="99999"></path><path d="M -0.1 -3.4358732450000007 0.1 -3.4358732450000007 5.2095397315339005 0 0.1 3.4358732450000007 -0.1 3.4358732450000007 -5.2095397315339005 0 z" transform="translate(34.74853242419035,-27.68024962297452)" fill="#f0b089" stroke="none" opacity="1"></path><path d="m 0.2 -3.5858732450000006 -0.2 0 5.434845113408534 3.5858732450000006 -5.434845113408534 3.5858732450000006 5 0 0.2 0 0 -7.171746490000001 z" transform="translate(0,0)" fill="#f0b089" stroke="none"></path></g><path d="M -0.1 -3.7410695000000005 0.1 -3.7410695000000005 5.67228439729 0 0.1 3.7410695000000005 -0.1 3.7410695000000005 -5.67228439729 0 z" transform="translate(108.56673982031239,0.14999999999997157)" fill="#f0ad81" stroke="none"></path><path d="m 0.2 -3.8910695000000004 -0.2 0 5.897408696053334 3.8910695000000004 -5.897408696053334 3.8910695000000004 5 0 0.2 0 0 -7.782139000000001 z" transform="translate(0,0)" fill="#f0ad81" stroke="none"></path></g><path d="M -0.1 -4.0764499999999995 0.1 -4.0764499999999995 6.180795018999999 0 0.1 4.0764499999999995 -0.1 4.0764499999999995 -6.180795018999999 0 z" transform="translate(84.00599359452565,-114.37808334265878)" fill="#f0aa79" stroke="none"></path><path d="m 0.2 -4.22645 -0.2 0 6.405720325333333 4.22645 -6.405720325333333 4.22645 5 0 0.2 0 0 -8.4529 z" transform="translate(0,0)" fill="#f0aa79" stroke="none"></path></g></g><g data-nodeid="a119e9590184c447969ed881a4d7a078" transform="scale(-1,1) translate(0, 0)" opacity="1"><path stroke-width="9.19" fill="none" d="M 0.0000 24.5000 C 0.0000 117.9983 -10.7240 198.2039 82.7743 198.2039" stroke="#e68782" stroke-dasharray="99999"></path><g data-nodeid="f7a6e2e48220b18093de532f7fb7230a" transform="scale(1, 1) translate(86.52426555684741,198.2039124776072)" opacity="1"><path stroke-width="8.4529" fill="none" d="M 4.5000 0.0000 C 76.8355 0.0000 56.1682 -0.0000 107.8365 -0.0000" stroke="#e88480" stroke-dasharray="99999"></path><g data-nodeid="e79e6513a2369bce811776c189857e32" transform="scale(1,1) translate(111.5864901973378,-5.684341886080802e-14)" opacity="1"><path stroke-width="7.782139000000001" fill="none" d="M 4.5000 0.0000 C 25.4617 0.0000 12.9492 -18.2655 32.3578 -18.2655" stroke="#e98986" stroke-dasharray="99999"></path><path d="M -0.1 -3.7410695000000005 0.1 -3.7410695000000005 5.67228439729 0 0.1 3.7410695000000005 -0.1 3.7410695000000005 -5.67228439729 0 z" transform="translate(32.25778355526676,-18.115491705439673)" fill="#e98986" stroke="none"></path><path d="m 0.2 -3.8910695000000004 -0.2 0 5.897408696053334 3.8910695000000004 -5.897408696053334 3.8910695000000004 5 0 0.2 0 0 -7.782139000000001 z" transform="translate(0,0)" fill="#e98986" stroke="none"></path></g><path d="M -0.1 -4.0764499999999995 0.1 -4.0764499999999995 6.180795018999999 0 0.1 4.0764499999999995 -0.1 4.0764499999999995 -6.180795018999999 0 z" transform="translate(107.7364901973378,0.14999999999994315)" fill="#e88480" stroke="none"></path><path d="m 0.2 -4.22645 -0.2 0 6.405720325333333 4.22645 -6.405720325333333 4.22645 5 0 0.2 0 0 -8.4529 z" transform="translate(0,0)" fill="#e88480" stroke="none"></path><g data-nodeid="ac0f0c581b930b2fcfceba00e93f9736" transform="scale(1,1) translate(111.5864901973378,-5.684341886080802e-14)"><path stroke-width="7.782139000000001" fill="none" d="M 4.5000 0.0000 C 24.0323 0.0000 18.3094 -0.3982 32.3578 -0.3982" stroke="#ea8c8a" stroke-dasharray="99999"></path><path d="M -0.1 -3.7410695000000005 0.1 -3.7410695000000005 5.67228439729 0 0.1 3.7410695000000005 -0.1 3.7410695000000005 -5.67228439729 0 z" transform="translate(32.25778355526676,-0.2482375581595079)" fill="#ea8c8a" stroke="none" opacity="1"></path><path d="m 0.2 -3.8910695000000004 -0.2 0 5.897408696053334 3.8910695000000004 -5.897408696053334 3.8910695000000004 5 0 0.2 0 0 -7.782139000000001 z" transform="translate(0,0)" fill="#ea8c8a" stroke="none"></path></g><g data-nodeid="0e3d4ef2faa61d64059d710e13471ac3" transform="scale(1,1) translate(111.5864901973378,-5.684341886080802e-14)" opacity="1"><path stroke-width="7.782139000000001" fill="none" d="M 4.5000 0.0000 C 25.6259 0.0000 12.3336 20.3178 32.3578 20.3178" stroke="#e77977"></path><path d="M -0.1 -3.7410695000000005 0.1 -3.7410695000000005 5.67228439729 0 0.1 3.7410695000000005 -0.1 3.7410695000000005 -5.67228439729 0 z" transform="translate(32.25778355526676,20.46776847424797)" fill="#e77977" stroke="none"></path><path d="m 0.2 -3.8910695000000004 -0.2 0 5.897408696053334 3.8910695000000004 -5.897408696053334 3.8910695000000004 5 0 0.2 0 0 -7.782139000000001 z" transform="translate(0,0)" fill="#e77977" stroke="none"></path></g></g><path d="M -0.1 -4.444999999999999 0.1 -4.444999999999999 6.739597899999999 0 0.1 4.444999999999999 -0.1 4.444999999999999 -6.739597899999999 0 z" transform="translate(82.67426555684742,198.3539124776072)" fill="#e68782" stroke="none"></path><path d="m -4.595 0.2 0 -0.2 4.595 6.964304533333332 4.595 -6.964304533333332 0 5 0 0.2 -9.19 0 z" transform="translate(0,20)" fill="#e68782" stroke="none"></path></g></g></svg>