
<svg xmlns="http://www.w3.org/2000/svg" id="pices" viewBox="0 0 32 32">
	<style>
		.st0{fill:#fffdfd}
	</style>
	<path d="M16 0C7.2 0 0 7.2 0 16s7.2 16 16 16 16-7.2 16-16S24.8 0 16 0zm0 30.9C7.8 30.9 1.1 24.2 1.1 16S7.8 1.1 16 1.1 30.9 7.8 30.9 16 24.2 30.9 16 30.9z" class="st0"/>
	<path d="M25.4 8.8c.3 0 .6-.2.6-.6 0-.3-.2-.6-.6-.6-4.7 0-8.5 3.7-8.8 8.3h-1.2c-.3-4.6-4.1-8.3-8.8-8.3-.3.1-.5.4-.5.7 0 .3.2.6.6.6 4.1 0 7.4 3.2 7.7 7.2h-3.8c-.3 0-.6.2-.6.6s.2.6.6.6h3.8c-.3 4-3.6 7.2-7.7 7.2-.3 0-.6.2-.6.6 0 .3.2.6.6.6 4.7 0 8.5-3.7 8.8-8.3h1.2c.3 4.6 4.1 8.3 8.8 8.3.3 0 .6-.2.6-.6 0-.3-.2-.6-.6-.6-4.1 0-7.4-3.2-7.7-7.2h3.8c.3 0 .6-.2.6-.6s-.4-.7-.7-.7h-3.8c.3-4 3.6-7.2 7.7-7.2z" class="st0"/>
</svg>