<svg xmlns="http://www.w3.org/2000/svg" id="sagitarius" viewBox="0 0 32 32">
	<style>
		.st0{fill:#fff}
	</style>
	<path d="M16 0C7.2 0 0 7.2 0 16s7.2 16 16 16 16-7.2 16-16S24.8 0 16 0zm0 30.9C7.8 30.9 1.1 24.2 1.1 16S7.8 1.1 16 1.1 30.9 7.8 30.9 16 24.2 30.9 16 30.9z" class="st0"/>
	<path d="M18.3 7.7c-.3 0-.6.2-.6.6 0 .3.2.6.6.6h4.1L16.3 15 14 12.6c-.2-.2-.6-.2-.8 0-.2.2-.2.6 0 .8l2.3 2.3-7.8 7.8c-.2.2-.2.6 0 .8.1.1.2.2.4.2s.3-.1.4-.2l7.8-7.8 2.3 2.3c.1.1.2.2.4.2.1 0 .3-.1.4-.2.2-.2.2-.6 0-.8l-2.3-2.3 6.1-6.1v4.1c0 .3.2.6.6.6.3 0 .6-.2.6-.6v-6h-6.1z" class="st0"/>
</svg>