<svg xmlns="http://www.w3.org/2000/svg" id="scorpion" viewBox="0 0 32 32">
	<style>
		.st0{fill:#fff}
	</style>
	<path d="M16 0C7.2 0 0 7.2 0 16s7.2 16 16 16 16-7.2 16-16S24.8 0 16 0zm0 30.9C7.8 30.9 1.1 24.2 1.1 16S7.8 1.1 16 1.1 30.9 7.8 30.9 16 24.2 30.9 16 30.9z" class="st0"/>
	<path d="M25.3 21.7c-.2-.2-.5-.3-.8-.1-.2.2-.3.5-.1.8l1 1.3h-.6c-.9 0-1.7-.7-1.7-1.7V11.6c0-2-1.6-3.5-3.8-3.5-1.5 0-2.7.7-3.4 1.7-.6-1-1.8-1.7-3.2-1.7-1.5 0-2.7.7-3.4 1.7-.6-1-1.8-1.7-3.2-1.7-2.2 0-4 1.5-4 3.5 0 .3.2.6.6.6s.6-.2.6-.6c0-1.5 1.4-2.4 2.9-2.4s2.7 1 2.7 2.4v10.5c0 .3.2.6.6.6s.6-.2.6-.6V11.6c0-1.5 1.4-2.4 2.9-2.4s2.7 1 2.7 2.4v10.5c0 .3.2.6.6.6s.6-.2.6-.6V11.6c0-1.5 1.4-2.4 2.9-2.4s2.7 1 2.7 2.4v10.5c0 1.5 1.2 2.8 2.8 2.8h.3l-1.3 1.3c-.2.2-.2.6 0 .8-.3 0-.2 0 0 0s.3-.1.4-.2l2.2-2.2.3-.3-1.9-2.6z" class="st0"/>
</svg>