<?xml version="1.0" encoding="UTF-8" standalone="no"?>
<!DOCTYPE svg PUBLIC "-//W3C//DTD SVG 1.1//EN" "http://www.w3.org/Graphics/SVG/1.1/DTD/svg11.dtd">
<svg  viewBox="0 0 16 24" version="1.1" xmlns="http://www.w3.org/2000/svg" xmlns:xlink="http://www.w3.org/1999/xlink" xml:space="preserve" xmlns:serif="http://www.serif.com/" style="fill-rule:evenodd;clip-rule:evenodd;stroke-linejoin:round;stroke-miterlimit:1.41421;">
    <g transform="matrix(1,0,0,1,-55,-281)">
        <g transform="matrix(0.923077,0,0,1,80.6154,128)">
            <g transform="matrix(1.08333,0,0,1,-87.3333,-128)">
                <path d="M56.946,300.543C56.992,301.568 57.302,302.653 58.203,303.195C58.58,303.423 59.031,303.514 59.476,303.516C60.204,303.519 60.956,303.273 61.409,302.705C61.628,302.431 61.797,302.106 61.853,301.762L62.82,301.912C62.779,302.179 62.686,302.431 62.572,302.672C62.185,303.497 61.435,304.131 60.53,304.368C59.248,304.703 57.788,304.412 56.918,303.358C56.129,302.402 55.892,301.056 55.981,299.867C56.074,298.629 56.568,297.343 57.701,296.72C58.22,296.435 58.818,296.318 59.411,296.315C59.422,296.315 59.433,296.315 59.444,296.315C60.364,296.32 61.29,296.631 61.918,297.323C62.574,298.046 62.867,299.066 62.872,300.04C62.872,300.04 62.869,300.153 62.838,300.232C62.767,300.413 62.582,300.535 62.382,300.543L56.946,300.543ZM67.504,296.315C68.237,296.319 68.961,296.572 69.539,297.034C69.998,297.4 70.381,297.872 70.621,298.408L69.727,298.807C69.651,298.633 69.546,298.474 69.432,298.322C68.949,297.677 68.164,297.251 67.349,297.297C66.961,297.319 66.564,297.463 66.306,297.761C65.685,298.48 65.76,299.669 65.773,300.591C65.787,301.326 66.056,302.084 66.434,302.645C66.827,303.226 67.477,303.607 68.296,303.489C68.684,303.433 69.078,303.263 69.309,302.933C69.577,302.55 69.63,302.048 69.6,301.578L70.576,301.514C70.621,302.207 70.517,302.915 70.11,303.495C69.336,304.599 67.543,304.8 66.438,304.036C65.65,303.491 65.194,302.573 64.958,301.674C64.675,300.593 64.7,299.425 64.939,298.425C65.103,297.738 65.463,297.066 66.076,296.684C66.491,296.426 66.989,296.319 67.474,296.315C67.484,296.315 67.494,296.315 67.504,296.315ZM59.415,297.294C58.748,297.297 58.075,297.5 57.633,298.018C57.27,298.444 57.09,298.997 57.003,299.538L56.999,299.564L61.859,299.564C61.757,298.796 61.433,298.02 60.741,297.611C60.347,297.377 59.876,297.293 59.415,297.294ZM60.236,281C61.83,281.002 63.444,281.006 64.978,281.366C66.354,281.689 67.653,282.402 68.407,283.693C69.206,285.061 69.377,286.735 69.363,288.335C69.353,289.538 69.039,290.753 68.319,291.731C67.486,292.863 66.17,293.603 64.856,294.03C62.739,294.717 60.455,294.832 58.236,294.615C58.156,294.607 58.04,294.593 58.04,294.593L58.04,281.006C58.773,281.006 59.504,281 60.236,281ZM60.094,281.978C59.736,281.979 59.377,281.98 59.018,281.982L59.018,293.691C60.881,293.792 62.789,293.672 64.554,293.1C65.882,292.668 67.162,291.92 67.837,290.669C68.295,289.819 68.405,288.817 68.38,287.847C68.336,286.122 68.131,284.291 66.671,283.162C65.711,282.42 64.426,282.191 63.19,282.079C62.162,281.985 61.126,281.978 60.094,281.978Z" style="fill:white;fill-rule:nonzero;"/>
            </g>
        </g>
    </g>
</svg>
