
<svg xmlns="http://www.w3.org/2000/svg" id="torus" viewBox="0 0 32 32">
	<style>
		.st0{fill:#fff}
	</style>
	<path d="M16 0C7.2 0 0 7.2 0 16s7.2 16 16 16 16-7.2 16-16S24.8 0 16 0zm0 30.9C7.8 30.9 1.1 24.2 1.1 16S7.8 1.1 16 1.1 30.9 7.8 30.9 16 24.2 30.9 16 30.9z" class="st0"/>
	<path d="M24.7 7.2l-1.2.3c-.3.1-.8.2-1.2.2-1.5.1-3 .7-4.1 1.7-.1.1-.2.2-.2.3-1 1-1.5 1.3-2 1.3-.4 0-1-.4-2-1.4-1.1-1.1-2.6-1.8-4.3-1.9-.5 0-.9-.1-1.3-.3l-1.1-.2c-.3-.1-.6.1-.7.4 0 .3.1.6.4.7l1.1.3c.4.1 1 .2 1.5.3 1.4.1 2.6.7 3.6 1.6.3.3.6.6.9.8-3.4.8-5.9 3.9-5.9 7.5 0 4.3 3.5 7.7 7.7 7.7s7.7-3.5 7.7-7.7c0-3.6-2.5-6.6-5.9-7.5.3-.2.6-.5.9-.8l.2-.2c.9-.8 2.1-1.3 3.4-1.4.5 0 1-.2 1.4-.3l1.4-.3c.3-.1.5-.4.4-.7-.1-.3-.4-.5-.7-.4zm-2.1 11.6c0 3.7-3 6.6-6.6 6.6s-6.6-3-6.6-6.6 3-6.6 6.6-6.6 6.6 2.9 6.6 6.6z" class="st0"/>
</svg>