<svg xmlns="http://www.w3.org/2000/svg" id="vergo" viewBox="0 0 32 32">
	<style>
		.st0{fill:#fff}
	</style>
	<path d="M16 0C7.2 0 0 7.2 0 16s7.2 16 16 16 16-7.2 16-16S24.8 0 16 0zm0 30.9C7.8 30.9 1.1 24.2 1.1 16S7.8 1.1 16 1.1 30.9 7.8 30.9 16 24.2 30.9 16 30.9z" class="st0"/>
	<path d="M28.8 15.2c-.3-1.2-1-2.3-2.1-2.9-.8-.5-1.7-.6-2.4-.3-.4.1-.8.4-1.1.7 0-2-1.6-3.5-3.8-3.5-1.5 0-2.7.7-3.4 1.7-.6-1-1.8-1.7-3.2-1.7-1.5 0-2.7.7-3.4 1.7-.6-1-1.8-1.7-3.2-1.7-2.2 0-4 1.5-4 3.5 0 .3.2.6.6.6s.6-.2.6-.6c0-1.5 1.4-2.4 2.9-2.4s2.7 1 2.7 2.4v10.5c0 .3.2.6.6.6s.6-.2.6-.6V12.7c0-1.5 1.4-2.4 2.9-2.4s2.7 1 2.7 2.4v10.5c0 .3.2.6.6.6s.6-.2.6-.6V12.7c0-1.5 1.4-2.4 2.9-2.4s2.7 1 2.7 2.4v10.5c-.9.5-1.9 1.1-3 1.7-.3.1-.4.5-.2.7.1.2.3.3.5.3.1 0 .2 0 .3-.1 1-.5 1.9-1.1 2.7-1.6.4 1 1.4 1.6 2.5 1.6.3 0 .6-.2.6-.6 0-.3-.2-.6-.6-.6-.7 0-1.3-.5-1.6-1.1 5.3-3.6 5.4-6.2 5-8.3zm-5.6 7.2v-8c.1-.3.6-1.2 1.4-1.4.5-.2 1-.1 1.6.2.8.4 1.4 1.2 1.6 2.1.2 1.4.6 3.6-4.6 7.1z" class="st0"/>
</svg>